<?xml version="1.0" encoding="utf-8"?>
<!-- Generator: Adobe Illustrator 16.0.0, SVG Export Plug-In . SVG Version: 6.00 Build 0)  -->
<!DOCTYPE svg PUBLIC "-//W3C//DTD SVG 1.1//EN" "http://www.w3.org/Graphics/SVG/1.1/DTD/svg11.dtd">
<svg version="1.1" id="Capa_1" xmlns="http://www.w3.org/2000/svg" xmlns:xlink="http://www.w3.org/1999/xlink" x="0px" y="0px"
	 width="126px" height="126px" viewBox="0 0 126 126" enable-background="new 0 0 126 126" xml:space="preserve">
<g>
	<g>
		<path fill-rule="evenodd" clip-rule="evenodd" fill="#4E4E4E" d="M65.295,65.703c-0.031,0.179-0.074,0.353-0.146,0.523
			c-0.25,0.607-0.707,0.806-1.115,1.258c-0.561,0.624-1.207,1.633-2.113,1.642c-1.098,0.015-2.162-0.44-3.264-0.44
			c-0.318,0-0.508,0.143-0.664,0.414c-0.107,0.185-0.367,0.646-0.211,0.838c0.072-0.559,0.66-0.526,1.025-0.291
			c-0.178,0.022-0.424,0.035-0.527,0.214c-0.094,0.159-0.049,0.606,0.063,0.743c-0.098-0.121,0.295-0.498,0.41-0.52
			c0.324-0.06,0.588,0.261,0.914,0.259c0.342,0,0.584-0.286,0.906-0.345c0.355-0.065,0.838,0.082,1.191,0.141
			c-0.313,0.169-0.713,0.341-1.063,0.39c-0.261,0.038-0.57-0.091-0.814-0.032c-0.139,0.035-0.266,0.167-0.406,0.215
			c-0.158,0.054-0.236-0.028-0.377,0.102c-0.236,0.219-0.17,0.678-0.078,0.944c0.064-0.461,0.281-0.854,0.799-0.604
			c0.338,0.163,0.334,0.482,0.816,0.395c0.488-0.089,0.793-0.501,1.283-0.503c0.533-0.005,0.975,0.21,1.465-0.07
			c0.562-0.321,1.004-0.595,1.66-0.669c0.248-0.026,0.744,0.122,0.941,0.017c0.213-0.115,0.252-0.464,0.521-0.604
			c0.273-0.141,0.486-0.137,0.541,0.222c0.086-0.367-0.229-0.442-0.424-0.68c-0.027-0.034-1.201,0.409-1.305,0.416
			c-0.457,0.03-0.939-0.132-1.316-0.375c0.578-1.467,2.314-2.294,3.67-2.814c0.879-0.336,2.234-0.792,2.063-1.998
			c-0.158-1.121-1.49-1.823-2.498-1.765c-1.076,0.062-1.639,0.687-1.811,1.731C65.363,64.866,65.367,65.292,65.295,65.703z"/>
		<g>
			<path fill="#4E4E4E" d="M80.195,75.215c-0.5-1.877-0.988-3.761-1.498-5.637c-0.438-1.611-1.336-3.707-1.414-5.48
				c-1.248-1.283-1.893-3.286-2.895-4.67c-0.104,0.047-0.205,0.098-0.313,0.147c-0.33,0.369-1.002,0.875-1.092,0.981
				c-0.439,0.506-0.412,1.096-0.566,1.746c-0.252-0.264-0.65-0.336-1.012-0.469c-2.402-0.88-4.723-3.003-5.768-5.372
				c-0.006-0.008-0.014-0.012-0.02-0.019c-0.129,0.721,0.076,1.495,0.109,2.177c-1.254-0.188-2.797-2.719-3.377-3.725
				c0.939,1.081,1.863,2.134,3.119,2.872c-0.16-0.463-0.117-0.993-0.082-1.48c0.109,0.046,0.178,0.098,0.23,0.156
				c0.002-0.007,0.002-0.014,0.002-0.019c0.008,0.014,0.012,0.026,0.018,0.038c0.1,0.118,0.145,0.258,0.33,0.42
				c1.332,1.159,2.6,2.546,4.115,3.457c0.395,0.237,2.08,0.676,2.164,1.122c-0.104-0.562,0.279-1.018,0.773-1.313
				c0.307-0.182,0.684-0.386,1.055-0.572c0.141-0.15,0.219-0.28,0.168-0.345c0.051,0.063,0.098,0.132,0.145,0.198
				c0.162-0.075,0.32-0.142,0.465-0.194c0.715,1.083,0.742,2.436,1.689,3.399c0.338,0.341,0.725,0.643,1.064,0.985
				c0.232,0.101,0.461,0.209,0.686,0.316c-0.762-1.89-0.795-3.978-1.5-5.853c-0.734-1.954-1.34-3.995-2.23-5.899
				c-0.74-1.584-1.805-2.958-2.891-4.305c-0.902-1.115-1.598-2.224-2.678-3.174c-0.674-0.596-1.574-1.163-2.428-1.783
				c-2.854-0.131-5.609-0.255-7.971,0.792c-2.457,1.407-4.566,5.623-2.457,8.082c3.777,4.095,4.174,10.441,9.02,12.476
				c0.463,0.137,0.926,0.28,1.383,0.431c0.615,0.198,1.227,0.403,1.842,0.598c0.705,0.223,1.412,0.433,2.121,0.646
				c0.092,0.028,0.191,0.034,0.287,0.055c1.369,0.298,1.822,0.928,1.727,2.053c0.24,1.143,0.436,1.988,0.596,2.843
				c0.316,1.688,0.275,3.392,0.178,5.101c-0.037,0.671,0.08,1.34,0.65,1.837c0.367,0.318,0.656,0.73,1.002,1.076
				c0.188,0.185,0.424,0.316,0.701,0.52c0.891-0.953,1.891-1.22,2.965-0.557C79.813,78.203,80.533,76.488,80.195,75.215z"/>
		</g>
		<g>
			<path fill="#4E4E4E" d="M63.408,63.213c0.445,0.364,0.939,0.681,1.492,0.938C64.43,63.671,63.973,63.446,63.408,63.213z"/>
			<path fill="#4E4E4E" d="M59.055,60.422c-0.066-0.056-0.135-0.103-0.207-0.136C58.916,60.332,58.986,60.379,59.055,60.422z"/>
			<path fill="#4E4E4E" d="M63.408,63.213c-0.271-0.111-0.568-0.227-0.906-0.376c-0.264-0.116-0.557-0.234-0.854-0.359
				c0.004,0.007,0.01,0.012,0.014,0.021c0.279,0.605-2.074,1.568-2.527,1.692c-1.121,0.3-2.283,0.333-3.432,0.458
				c-0.191,0.02-0.52,0.147-0.693,0.1c-0.117-0.03-0.395-0.478-0.506-0.422c-0.344,0.176-0.74,0.185-1.104,0.281
				c-0.559,0.15-0.498,0.57-0.795,0.914c0.283-0.327,0.484-0.774,0.91-0.556c0.176,0.089,0.246,0.353,0.438,0.455
				c0.34,0.184,0.613,0.08,0.963,0.094c0.479,0.014,0.918,0.26,1.41,0.217c0.357-0.032,0.684-0.146,1.049-0.127
				c0.406,0.018,0.803,0.119,1.207,0.159c0.576,0.06,1.213,0.194,1.795,0.156c0.199-0.013,0.293-0.15,0.432-0.173
				c0.406-0.063,0.508,0.424,0.674,0.74c0.055-0.317,0.102-0.711-0.1-0.988c-0.242-0.331-0.533-0.088-0.85-0.152
				c-0.316-0.067-0.594-0.23-0.936-0.289c0.139-0.659,1.566-0.762,2.047-0.79c0.656-0.037,1.311-0.135,1.967-0.165
				c0.404-0.021,0.834-0.043,1.215,0.066c0.045,0.013,0.09,0.028,0.133,0.04c-0.021-0.019-0.037-0.039-0.059-0.058
				C64.348,63.894,63.854,63.577,63.408,63.213z"/>
		</g>
		<g>
			<path fill="#4E4E4E" d="M58.596,43.713c2.361-1.047,5.117-0.923,7.971-0.792c-0.982-0.711-1.908-1.492-2.363-2.463
				c-0.795-1.688-0.443-3.7-1.154-5.441c-0.51-1.254-1.344-2.342-2.271-3.31c-0.367-0.385-1.371-0.602-1.827-0.895
				c-0.144-0.094-0.314-0.148-0.451-0.211c-0.363-0.887-0.701-1.75-1.059-2.602c-0.611-1.447-1.617-2.356-3.227-2.427
				c-0.152-0.006-0.299-0.062-0.451-0.095c-0.115,0-0.232,0-0.35,0c-0.398,0.08-0.813,0.113-1.191,0.246
				c-0.453,0.158-0.936,0.331-1.301,0.628c-0.758,0.61-1.547,1.201-2.029,2.11c-0.264,0.507-0.457,1.016-0.408,1.585
				c0.051,0.612,0.09,1.246,0.301,1.805c0.096,0.25,0.23,0.374,0.174,0.674c-0.016,0.074-0.352,0.689-0.373,0.677
				c0.229,0.127,0.5,0.215,0.756,0.279c1.768,0.445,3.502,2.666,3.646,4.506c0.156,2.008-2.338,3.656-2.977,5.454
				c-0.551,1.548-0.271,3.95-0.225,5.582c0.057,2.056,0.662,3.998,1.709,5.754c0.545,0.917,1.41,1.521,2.451,1.847
				c0.051-0.068,0.105-0.141,0.172-0.225c0.043,0.036,0.096,0.064,0.131,0.106c0.688,0.858,1.486,1.566,2.477,2.043
				c0.223,0.11,0.432,0.274,0.617,0.444c0.41,0.376,0.793,0.791,1.246,1.116c0.076,0.055,0.156,0.106,0.232,0.159
				c0.547,0.176,1.412,0.929,1.83,1.199c0.188,0.122,0.951,0.459,1.859,0.889c-2.541-2.82-3.432-7.375-6.373-10.563
				C54.029,49.336,56.139,45.12,58.596,43.713z M56.857,33.854c-0.389,0-0.703-0.319-0.703-0.714c0-0.396,0.314-0.715,0.703-0.715
				c0.387,0,0.701,0.319,0.701,0.715C57.559,33.534,57.244,33.854,56.857,33.854z"/>
		</g>
		<ellipse fill="#4E4E4E" cx="56.856" cy="33.158" rx="0.468" ry="0.475"/>
	</g>
	<g>
		<g>
			<path fill="#010202" d="M55.172,90.7h-4.061l-1.395,3.527h-0.772l4.02-10.035h0.444l3.938,10.035H56.56L55.172,90.7z
				 M51.365,90.071h3.575l-1.36-3.603c-0.114-0.282-0.25-0.675-0.41-1.176c-0.123,0.438-0.257,0.834-0.403,1.189L51.365,90.071z"/>
			<path fill="#010202" d="M60.006,94.228l-2.871-7.431h0.697l1.921,5.052c0.255,0.647,0.447,1.212,0.574,1.695h0.041
				c0.187-0.62,0.378-1.189,0.574-1.709l1.921-5.038h0.697l-2.871,7.431H60.006z"/>
			<path fill="#010202" d="M67.738,94.364c-1.08,0-1.922-0.333-2.526-0.998s-0.906-1.598-0.906-2.796
				c0-1.185,0.292-2.134,0.875-2.847c0.583-0.714,1.37-1.07,2.358-1.07c0.875,0,1.565,0.306,2.071,0.916s0.759,1.44,0.759,2.488
				v0.547h-5.353c0.009,1.021,0.247,1.8,0.714,2.338s1.136,0.807,2.006,0.807c0.424,0,0.796-0.029,1.118-0.089
				s0.728-0.187,1.22-0.383v0.615c-0.419,0.183-0.807,0.307-1.162,0.372C68.559,94.331,68.167,94.364,67.738,94.364z M67.54,87.255
				c-0.715,0-1.29,0.236-1.723,0.708s-0.686,1.151-0.759,2.04h4.594c0-0.861-0.187-1.534-0.561-2.02S68.201,87.255,67.54,87.255z"/>
			<path fill="#010202" d="M76.996,92.293c0,0.665-0.253,1.177-0.759,1.535c-0.506,0.357-1.224,0.536-2.153,0.536
				c-0.994,0-1.782-0.152-2.365-0.458v-0.731c0.748,0.374,1.536,0.561,2.365,0.561c0.734,0,1.291-0.122,1.671-0.365
				c0.38-0.244,0.571-0.569,0.571-0.975c0-0.374-0.151-0.688-0.455-0.943s-0.801-0.506-1.494-0.752
				c-0.743-0.269-1.265-0.5-1.565-0.693c-0.301-0.194-0.527-0.413-0.68-0.656c-0.153-0.244-0.229-0.542-0.229-0.893
				c0-0.556,0.233-0.996,0.701-1.319s1.12-0.485,1.958-0.485c0.802,0,1.563,0.15,2.283,0.451l-0.253,0.615
				c-0.729-0.301-1.406-0.451-2.03-0.451c-0.606,0-1.087,0.101-1.442,0.301s-0.533,0.479-0.533,0.834
				c0,0.388,0.138,0.697,0.414,0.93s0.814,0.492,1.617,0.779c0.67,0.241,1.158,0.459,1.463,0.653
				c0.305,0.193,0.534,0.413,0.687,0.659S76.996,91.96,76.996,92.293z"/>
		</g>
	</g>
</g>
<g id="Grabar_-_Gris_1_">
</g>
<g id="Grabar_-_Gris">
</g>
</svg>
