<?xml version="1.0" encoding="utf-8"?>
<!-- Generator: Adobe Illustrator 16.0.0, SVG Export Plug-In . SVG Version: 6.00 Build 0)  -->
<!DOCTYPE svg PUBLIC "-//W3C//DTD SVG 1.1//EN" "http://www.w3.org/Graphics/SVG/1.1/DTD/svg11.dtd">
<svg version="1.1" id="Capa_1" xmlns="http://www.w3.org/2000/svg" xmlns:xlink="http://www.w3.org/1999/xlink" x="0px" y="0px"
	 width="126px" height="126px" viewBox="0 0 126 126" enable-background="new 0 0 126 126" xml:space="preserve">
<g>
	<g>
		<g>
			<path fill-rule="evenodd" clip-rule="evenodd" fill="#4E4E4E" d="M58.291,76.35c-0.117-0.398-0.203-0.801-0.283-1.116
				c-0.123-0.468-0.227-1.738-0.535-2.09c-0.184-0.206-2.059-0.7-2.064-0.688c0.17-0.315,0.357-0.66,0.563-1.038
				c-1.129-0.964-2.139-0.577-3.111,0.304c-0.049-0.115-0.098-0.229-0.145-0.341c0.576-0.307,1.125-0.751,1.734-0.889
				c0.834-0.18,1.756-0.313,2.563-0.105c0.426,0.111,0.781,0.936,0.99,1.509c0.223,0.614,0.232,1.312,0.33,1.95
				c1.707-0.15,2.076-0.605,1.668-2.071c-0.455-1.632-1.029-3.227-1.535-4.844c-0.199-0.636-0.5-0.884-1.197-0.734
				c-1.053,0.229-2.023-0.066-3.049-1.213c0.918-0.468,1.705-0.866,2.375-1.207c-1.262-0.311-2.824-0.372-4.064-1.071
				c-1.256-0.713-2.199-2.056-3.404-3.249c1.432-1.192,2.924-1.394,4.486-0.929c1.785,0.532,3.063,1.646,3.381,3.745
				c0.113,0.728,0.404,1.427,0.76,2.11c0.578-1.247,1.602-2.3,0.908-3.777c-0.145-0.309-0.264-0.679-0.496-0.879
				c-0.963-0.838-1.539-1.721-0.98-3.135c0.264-0.655-0.807-2.122-1.52-2.29c-0.332-0.082-0.672-0.16-1.248-0.297
				c0.453-0.322,0.682-0.493,0.854-0.617c-1.76-0.667-3.592-1.102-5.154-2.035c-1.539-0.918-3.416-1.891-3.037-4.289
				c-1.086-0.943-2.104-1.829-3.254-2.825c2.957-1.282,5.697-1.145,8.318,0.444c2.096,1.269,3.838,2.92,4.275,5.629
				c0.076,0.465,0.012,0.957,0.053,1.43c0.078,0.898,0.191,1.792,0.5,2.68c0.064-2.08,0.738-3.802,2.221-5.098
				c0.555-0.487,1.244-1.016,1.918-1.094c1.211-0.136,1.705-0.68,1.637-1.922c-0.01-0.166,0.064-0.333,0.16-0.759
				c0.738,0.423,1.387,0.8,2.035,1.173c0.072-0.052,0.141-0.103,0.213-0.157c-0.227-0.308-0.395-0.717-0.691-0.913
				c-3.246-2.146-4.518-5.403-4.732-9.291c-0.055-0.987-0.277-1.962-0.422-2.961c3.402-1.425,7.236,3.205,7.752,9.623
				c0.67-1.033,1.063-1.888,0.943-3.167c-0.26-2.774,1.135-4.887,3.09-6.527c3.332-2.783,7.051-3.7,11.16-2.24
				c0.418,0.147,0.799,0.401,0.982,0.495c-0.871,1.115-1.775,2.129-2.531,3.258c-2.672,3.99-6.182,6.404-10.879,6.488
				c-1.385,0.026-1.721,0.891-2.027,1.894c0.936,0.584,1.813,1.136,2.557,1.606c-0.469,0.229-1.037,0.503-1.887,0.919
				c-0.441-0.247-1.17-0.404-1.891,0.488c-0.762,0.941-0.979,1.831-0.516,2.995c0.277,0.699,0.342,1.491,0.67,2.429
				c1.188-3.48,3.49-5.03,6.795-4.537c1.098,0.166,2.119,0.905,3.332,1.454c-2.199,2.061-4.148,3.701-6.922,3.289
				c-0.084-0.011-0.178,0.013-0.246-0.021c-2.439-1.124-3.459,0.744-4.414,2.131c1.322-0.198,2.824-0.609,4.313-0.584
				c1.639,0.031,2.98,0.901,3.697,2.712c-2.449,0.865-4.736,2.202-7.395,1.129c-2.143-0.864-2.303-0.884-2.971,1.588
				c-0.652,2.412-0.951,4.935-1.404,7.411c0.133,0.031,0.266,0.066,0.402,0.099c1.092-2.071,1.748-4.192,3.801-5.383
				c0.795-0.463,1.707-1.262,2.627-1.288c-1.377,0.634-2.797,1.431-3.814,2.632c-1.027,1.213-1.631,3.11-2.285,4.573
				c1.486-0.642,2.781-1.389,4.473-0.699c-1.014,0.165-1.943,0.131-2.699,0.489c-0.746,0.36-1.316,1.119-2.072,1.802
				c0.961,0.138,1.57,0.226,2.178,0.314c0.252,0.035-1.115,2.668-1.307,2.871c-0.59,0.644-0.951,0.563-1.268,1.441
				c-0.488,1.366,0.146,3.77-1.385,4.609C59.072,78.298,58.586,77.346,58.291,76.35z M59.434,61.503
				c0.498-0.272,0.783-0.441,1.076-0.589c1.037-0.512,1.326-1.359,0.963-2.474c-0.406-1.25-1.229-1.854-2.336-1.579
				c-0.295,0.072-0.748,0.637-0.697,0.883C58.676,58.961,59.059,60.148,59.434,61.503z M59.871,66.004
				c-0.168-0.054-0.336-0.106-0.504-0.164c-0.113,0.38-0.396,0.815-0.309,1.126c0.344,1.19,0.807,2.338,1.223,3.502
				c0.057-0.012,0.109-0.025,0.164-0.037C60.252,68.956,60.063,67.479,59.871,66.004z M62.236,56.503
				c0.234-0.944,0.443-1.794,0.742-3.007C61.42,55.423,61.42,55.423,62.236,56.503z M63.209,56.028
				c1.438-1.757,1.438-1.757,0.643-2.493C63.627,54.407,63.418,55.219,63.209,56.028z"/>
			<path fill-rule="evenodd" clip-rule="evenodd" fill="#4E4E4E" d="M63.523,61.024c-0.498-0.403-0.873-0.704-1.25-1.011
				c0.396-0.289,0.809-0.828,1.189-0.806c0.455,0.028,0.885,0.534,1.326,0.829C64.41,60.336,64.029,60.63,63.523,61.024z"/>
		</g>
	</g>
	<g>
		<path fill="#010202" d="M48.16,87.104c0,0.966-0.328,1.707-0.984,2.222s-1.586,0.772-2.789,0.772h-1.545v4.129h-0.697v-9.994
			h2.447C46.97,84.233,48.16,85.19,48.16,87.104z M42.841,89.497h1.374c1.125,0,1.939-0.186,2.44-0.557
			c0.501-0.372,0.752-0.975,0.752-1.809c0-0.771-0.237-1.341-0.711-1.712c-0.474-0.372-1.208-0.558-2.201-0.558h-1.654V89.497z"/>
		<path fill="#010202" d="M50.673,94.228h-0.677V83.591h0.677V94.228z"/>
		<path fill="#010202" d="M57.527,94.228l-0.171-1.176h-0.055c-0.374,0.479-0.758,0.817-1.152,1.016
			c-0.394,0.197-0.86,0.297-1.398,0.297c-0.729,0-1.296-0.187-1.702-0.561s-0.608-0.891-0.608-1.552
			c0-0.725,0.302-1.287,0.906-1.688s1.478-0.613,2.622-0.636l1.415-0.041v-0.492c0-0.706-0.144-1.239-0.431-1.6
			s-0.75-0.54-1.388-0.54c-0.688,0-1.401,0.191-2.14,0.574l-0.253-0.588c0.816-0.383,1.623-0.574,2.42-0.574
			c0.816,0,1.425,0.212,1.829,0.636s0.605,1.085,0.605,1.982v4.942H57.527z M54.793,93.749c0.793,0,1.418-0.227,1.876-0.68
			c0.458-0.454,0.687-1.084,0.687-1.891v-0.731l-1.299,0.055c-1.043,0.05-1.788,0.213-2.232,0.489
			c-0.444,0.275-0.667,0.705-0.667,1.288c0,0.465,0.143,0.826,0.427,1.084C53.871,93.62,54.273,93.749,54.793,93.749z"/>
		<path fill="#010202" d="M65.521,94.228v-4.819c0-0.747-0.157-1.291-0.472-1.63c-0.314-0.34-0.802-0.51-1.463-0.51
			c-0.889,0-1.539,0.225-1.952,0.674c-0.413,0.448-0.619,1.177-0.619,2.184v4.102H60.34v-7.431h0.574l0.13,1.019h0.041
			c0.483-0.774,1.342-1.162,2.577-1.162c1.686,0,2.529,0.904,2.529,2.714v4.86H65.521z"/>
		<path fill="#010202" d="M70.5,93.763c0.428,0,0.802-0.036,1.121-0.109V94.2c-0.328,0.109-0.707,0.164-1.135,0.164
			c-0.656,0-1.141-0.176-1.453-0.526s-0.468-0.902-0.468-1.654v-4.799h-1.101v-0.396l1.101-0.308l0.342-1.682h0.349v1.798h2.181
			v0.588h-2.181v4.703c0,0.569,0.1,0.991,0.301,1.265S70.071,93.763,70.5,93.763z"/>
		<path fill="#010202" d="M77.896,94.228l-0.171-1.176H77.67c-0.374,0.479-0.758,0.817-1.152,1.016
			c-0.394,0.197-0.86,0.297-1.398,0.297c-0.729,0-1.296-0.187-1.702-0.561s-0.608-0.891-0.608-1.552
			c0-0.725,0.302-1.287,0.906-1.688s1.478-0.613,2.622-0.636l1.415-0.041v-0.492c0-0.706-0.144-1.239-0.431-1.6
			s-0.75-0.54-1.388-0.54c-0.688,0-1.401,0.191-2.14,0.574l-0.253-0.588c0.816-0.383,1.623-0.574,2.42-0.574
			c0.816,0,1.425,0.212,1.829,0.636s0.605,1.085,0.605,1.982v4.942H77.896z M75.161,93.749c0.793,0,1.418-0.227,1.876-0.68
			c0.458-0.454,0.687-1.084,0.687-1.891v-0.731l-1.299,0.055c-1.043,0.05-1.788,0.213-2.232,0.489
			c-0.444,0.275-0.667,0.705-0.667,1.288c0,0.465,0.143,0.826,0.427,1.084C74.239,93.62,74.642,93.749,75.161,93.749z"/>
		<path fill="#010202" d="M85.341,92.293c0,0.665-0.253,1.177-0.759,1.535c-0.506,0.357-1.224,0.536-2.153,0.536
			c-0.994,0-1.782-0.152-2.365-0.458v-0.731c0.748,0.374,1.536,0.561,2.365,0.561c0.734,0,1.291-0.122,1.671-0.365
			c0.38-0.244,0.571-0.569,0.571-0.975c0-0.374-0.151-0.688-0.455-0.943s-0.801-0.506-1.494-0.752
			c-0.743-0.269-1.265-0.5-1.565-0.693c-0.301-0.194-0.527-0.413-0.68-0.656c-0.153-0.244-0.229-0.542-0.229-0.893
			c0-0.556,0.233-0.996,0.701-1.319s1.12-0.485,1.958-0.485c0.802,0,1.563,0.15,2.283,0.451l-0.253,0.615
			c-0.729-0.301-1.406-0.451-2.03-0.451c-0.606,0-1.087,0.101-1.442,0.301s-0.533,0.479-0.533,0.834c0,0.388,0.138,0.697,0.414,0.93
			s0.814,0.492,1.617,0.779c0.67,0.241,1.158,0.459,1.463,0.653c0.305,0.193,0.534,0.413,0.687,0.659S85.341,91.96,85.341,92.293z"
			/>
	</g>
</g>
<g id="Grabar_-_Gris_1_">
</g>
<g id="Grabar_-_Gris">
</g>
</svg>
