<?xml version="1.0" encoding="utf-8"?>
<!-- Generator: Adobe Illustrator 16.0.0, SVG Export Plug-In . SVG Version: 6.00 Build 0)  -->
<!DOCTYPE svg PUBLIC "-//W3C//DTD SVG 1.1//EN" "http://www.w3.org/Graphics/SVG/1.1/DTD/svg11.dtd">
<svg version="1.1" id="Capa_1" xmlns="http://www.w3.org/2000/svg" xmlns:xlink="http://www.w3.org/1999/xlink" x="0px" y="0px"
	 width="126px" height="126px" viewBox="0 0 126 126" enable-background="new 0 0 126 126" xml:space="preserve">
<g>
	<g>
		<g>
			<path fill="#4E4E4E" d="M73.982,38.835c0.697,0.481,1.393,0.969,1.99,1.557C75.539,39.648,74.766,39.172,73.982,38.835z"/>
			<path fill="#4E4E4E" d="M66.904,51.343c-0.818,0.317-1.42,0.644-2.01,1.281c-0.289,0.316-0.715,0.582-1.061,0.9
				c0.172,0.354,0.346,0.719,0.359,1.084c0.031,1.013,0.965,2.403,1.92,2.645c0.104,0.027,0.221-0.011,0.33,0
				c0.439,0.035,0.891-0.028,1.252,0.357c0.266,0.284,0.561,0.356,0.951,0.064c0.301-0.224,0.793-0.455,1.174-0.436
				c0.51,0.023,0.941,0.404,1.484,0.37c0.238-0.017,0.461-0.182,0.68-0.179c0.959,0.009,1.713,1.221,2.223,1.906
				c0.295-0.146,0.145-0.459,0.105-0.714c-0.006-0.038-0.018-0.823,0.059-0.719c0.16,0.226,0.42,0.431,0.648,0.602
				c0.141,0.108,0.223,0.25,0.406,0.293c0.039,0.009,0.432-0.014,0.414-0.04c-0.217-0.354-0.391-0.991-0.709-1.206
				c0.357,0.039,0.641,0.286,0.971,0.396c0.084,0.028,0.762,0.085,0.734,0.055c-0.496-0.559-1.174-0.983-1.844-1.296
				c-0.33-0.155-1.775-0.728-2.104-0.389c0.428-0.443,0.865,0.052,1.34-0.005c0.465-0.055,0.955-0.598,0.479-1.024
				c-0.465,0.465-1.424,0.028-1.971-0.022c-0.967-0.095-1.957-0.022-2.93-0.064c-0.92-0.036-1.352-0.738-1.264-1.669
				c0.063-0.66,0.039-1.336-0.002-2c-0.02-0.322,0.023-0.53,0.164-0.655C68.029,50.784,67.604,51.069,66.904,51.343z"/>
			<path fill="#4E4E4E" d="M86.801,58.798c0.236-1.347-1.686-1.717-2.709-1.867c-1.367-0.203-2.732-0.172-3.141-1.806
				c-0.309-1.25-0.803-2.469-1.359-3.631c-0.791-1.657-1.479-3.347-1.719-5.166c-0.137-1.015-0.451-1.907-0.875-2.821
				c-0.381-0.825-0.537-1.759-0.793-2.645c-0.031-0.109-0.012-0.258-0.08-0.328c-0.037-0.038-0.078-0.071-0.115-0.108
				c0.053,0.114,0.104,0.232,0.15,0.355c-0.053-0.139-0.117-0.27-0.188-0.392c-0.598-0.588-1.293-1.075-1.99-1.557
				c-0.094-0.039-0.189-0.082-0.281-0.118c-1.236-0.486-2.523-0.125-3.738,0.246c-1.244,0.38-1.609,1.692-2.201,2.727
				c-0.027,0.052-0.059,0.114-0.09,0.174c0.324-0.155,0.729-0.029,0.975,0.396c0.326,0.561,0.131,1.385,0.311,2.012
				c0.602-0.407,1.301-1.708,2.182-1.404c0.758,0.259,1.35,1.352,1.307,2.132c-0.02,0.405-0.168,0.554-0.484,0.785
				c-0.082,0.062-1.055,0.666-1.137,0.414c0.258,0.786,0.576,1.77-0.219,2.331c-0.613,0.435-1.713,0.591-2.301,0
				c-0.529-0.528-1.117-2.018-0.775-2.756c-0.641-0.553-0.682-0.898-0.453-1.659c0.092-0.308,0.088-0.615,0.088-0.918
				c-0.143-0.671-0.023-1.427,0.258-2.02c0.053-0.119,0.115-0.247,0.182-0.38c0.33-0.658,0.795-1.421,1.383-1.739
				c0.727-0.394,1.717-0.794,2.535-0.896c0.541-0.068,1.057-0.063,1.541,0.014c-0.512-0.379-0.996-0.783-1.406-1.264
				c-1.109-1.301-2.18-2.424-3.623-3.428c-0.891-0.621-1.83-1.175-2.771-1.711c-0.287-0.163-0.654-0.176-0.988-0.258
				c-0.148-0.034-0.309-0.04-0.445-0.105c-0.607-0.289-1.189-0.65-1.818-0.883c-0.619-0.228-1.283-0.326-1.926-0.494
				c-1.217-0.313-2.439,0.208-3.666-0.033c-0.248-0.048-0.564,0.283-0.854,0.433c-0.186,0.098-0.391,0.289-0.561,0.264
				c-1.084-0.153-1.98,0.154-2.861,0.824c-0.787,0.595-1.719,0.993-2.59,1.467c-0.572,0.313-1.16,0.596-1.723,0.924
				c-0.135,0.079-0.207,0.281-0.293,0.438c-0.094,0.159-0.137,0.439-0.262,0.478c-0.91,0.297-1.125,1.258-1.74,1.837
				c-0.26,0.242-0.451,0.628-0.527,0.983c-0.105,0.507-0.396,0.871-0.633,1.296c-0.689,1.229-1.314,2.496-1.928,3.766
				c-0.463,0.961-0.955,1.925-1.271,2.94c-0.434,1.387-0.787,2.811-1.037,4.245c-0.32,1.836-0.541,3.694-0.736,5.552
				c-0.246,2.335-0.168,5.1,0.102,7.425c0.277,2.361-0.035,4.766,0.525,7.1c0.5,2.071,0.508,4.004,1.83,5.781
				c0.604,0.811,1.99,1.669,2.916,2.018c1.795,0.671,4.355,0.052,5.852-1.084c0.682-0.515,1.313-1.062,1.453-1.952
				c0.078-0.506,0.035-2.097-0.82-2.05c-0.266,0.014-0.301,0.206-0.439,0.366c-0.049,0.056-0.16,0.264-0.213,0.328
				c0.172-0.033,0.172,0.005,0,0.118c-1.332,0.736-2.438,1.484-3.994,1.406c-1.461-0.077-2.271-0.695-2.971-2.011
				c-0.631-1.186-0.668-2.797-0.732-4.117c-0.107-2.194,0.002-4.392,0.162-6.583c0.139-1.864-0.023-3.613,0.053-5.464
				c0.004-0.079-0.016-0.177,0.023-0.23c0.594-0.782,0.281-1.763,0.564-2.612c0.246-0.73,0.531-1.447,0.75-2.185
				c0.137-0.461,0.17-0.952,0.271-1.428c0.123-0.574,0.133-1.15,0.463-1.709c0.35-0.591,0.424-1.344,0.664-2.009
				c0.088-0.242,0.313-0.436,0.551-0.751c-0.104-0.522-0.02-1.199,0.451-1.724c0.418-0.467,0.377-1.501,1.41-1.27
				c0.113,0.398,0.195,0.801,0.342,1.174c0.121,0.317,0.244,0.663,0.73,0.574c0.129-0.025,0.424,0.19,0.426,0.302
				c0.008,0.205-0.146,0.415-0.244,0.647c0.291,0.197,0.615,0.417,0.973,0.661c-0.162,0.18-0.289,0.319-0.396,0.439
				c0.322,0.342,0.613,0.713,0.967,1.009c0.262,0.222,0.258,0.417,0.096,0.648c-0.264,0.384-0.303,0.69,0.355,0.835
				c-1.135,0.688-1.289,1.778-1.52,2.827c-0.109,0.49-0.303,0.84-0.846,0.983c-0.256,0.068-0.488,0.357-0.66,0.601
				c-0.609,0.859-0.779,1.87-0.904,2.893c-0.063,0.504,0.104,0.887,0.512,1.217c0.494,0.398,0.898,0.912,1.395,1.301
				c0.299,0.235,0.689,0.43,1.059,0.467c0.811,0.084,3.189,0.688,3.119,1.812c-0.029,0.523-0.143,0.804,0.24,1.256
				c0.027-0.28,0.357-0.515,0.586-0.619c0.121,0.333-0.023,1.146,0.57,0.976c-0.168-0.206,0.057-0.805,0.223-0.979
				c0.063,0.366,0.229,0.662,0.521,0.866c-0.193-0.365-0.008-0.921,0.186-1.26c0.037,0.526,0.805,1.088,1.254,1.247
				c-0.199-0.263-0.629-1.558-0.559-1.903c0.621-0.105-0.678-1.566-0.799-1.734c-0.254-0.354-0.342-0.729-0.744-0.95
				c-0.908-0.497-1.967-0.202-2.523-1.294c0.156,0.143,0.287,0.332,0.467,0.438c0.039-0.243-0.016-0.473-0.045-0.716
				c0.199,0.244,0.311,0.543,0.51,0.783c0.117-1.484,0.9-2.174,1.85-3.193c0.545-0.583,1.053-1.202,1.584-1.799
				c0.1-0.115,0.236-0.197,0.357-0.293c0.084,0.14,0.242,0.286,0.234,0.419c-0.025,0.403,0.012,0.903-0.205,1.179
				c-0.592,0.748,0.633,3.43,0.553,4.235c-0.129,1.338,1.004,3.161,1.477,4.375c0.141,0.36,0.262,0.731,0.391,1.097
				c0.242,0.697,0.074,0.71-0.205,1.271c-0.076,0.153-0.289,1.199-0.523,1.171c0.23,0.028,0.537,0.213,0.811,0.03
				c0.301-0.203,0.072-0.736,0.543-0.826c-0.029,0.279-0.229,0.548-0.285,0.817c0.045-0.212,1.09-0.304,1.25-0.793
				c0.193-0.582-0.096-1.245,0.201-1.796c0.941,0.227-0.008,1.856-0.432,2.223c0.141-0.124,0.141-0.108,0.313-0.15
				c0.479-0.114,0.928-0.486,1.154-0.906c0.031-0.061,0.361-1.361,0.438-1.326c0.768,0.341,0.518,0.438,0.482,1.136
				c-0.023,0.455,0.066,0.475,0.492,0.84c-0.27-0.693,0.563-1.165,0.479-1.821c-0.086-0.684-0.857-1.089-1.256-1.572
				c0.266,0.072,0.596,0.288,0.877,0.275c0.117-0.004,0.781-0.38,0.586-0.434c-0.922-0.249-3.16-0.809-2.617-1.986
				c0.201-0.438-0.398-3.358-0.189-3.79c0.295-0.613,0.617-1.211,0.951-1.801c0.053-0.911,2.924-2.321,3.303-2.495
				c0.621-0.286,1.23-0.796,1.906-0.873c0.404-0.045,0.846,0.051,1.281,0.174c0.072-0.021,0.143-0.053,0.189-0.1
				c0.514-0.507,1.104-0.529,1.738-0.31c0.07,0.024,0.189,0.082,0.211,0.056c0.32-0.354,0.748-0.223,1.127-0.312
				c0.84-0.201,1.207-0.126,1.537,0.691c0.311,0.769,0.531,1.58,0.855,2.343c0.287,0.672,0.592,1.356,1.014,1.945
				c0.666,0.937,1.424,1.811,2.17,2.687c0.191,0.225,0.471,0.375,0.725,0.54c0.174,0.116,0.443,0.147,0.547,0.303
				c0.447,0.666,1.109,0.7,1.807,0.8c0.813,0.111,1.646,0.304,2.027,1.222c0.035,0.086,0.213,0.159,0.32,0.157
				c0.074-0.002,0.203-0.148,0.205-0.233c0.008-0.508-0.395-1.179-0.107-1.646c0.352-0.567,0.994-0.511,1.557-0.478
				c0.881,0.048,0.529,0.17,0.729,0.948c0.105,0.417,0.449,0.698,0.844,0.826C86.588,59.725,86.725,59.232,86.801,58.798z
				 M58.533,48.874c0-0.46,0.086-1.046-0.025-1.588c-0.115-0.565-0.426-1.087-0.67-1.678c1.096,0.317,2.148,0.531,2.627,1.597
				C59.813,47.77,59.16,48.334,58.533,48.874z M75.953,43.509c-0.125,0.753-0.486,1.328-1.109,1.751
				c-0.148,0.101-1.191,0.893-1.104,0.316c0.043-0.298,0.723-0.384,0.932-0.546c0.363-0.278,0.932-0.789,0.324-1.167
				c0.004,0.285-0.027,0.694-0.348,0.749c0.094-0.28,0.121-0.717-0.182-0.875c-0.311,0.183-0.002,0.419-0.111,0.71
				c-0.078,0.203-0.365,0.31-0.52,0.5c-0.092-0.183-0.111-0.389-0.078-0.597c0.1-0.63,0.672-1.291,1.146-1.472
				C75.506,42.646,76.08,42.74,75.953,43.509z"/>
			<path fill="#4E4E4E" d="M70.326,45.365c0.334-0.002,0.658-0.298,0.816-0.58c-0.26-0.124-0.529-0.289-0.82-0.299
				c-0.375-0.013-0.773,0.414-0.781,0.81C69.545,45.032,70.229,45.365,70.326,45.365z"/>
			<path fill="#4E4E4E" d="M68.564,45.134c-0.035-0.062,0.066-0.333,0.051-0.433c-0.021-0.129-0.08-0.253-0.166-0.349
				c-0.047-0.054-0.68-0.434-0.68-0.409c0,0.256-0.125,0.614,0.068,0.842C68.02,44.998,68.42,44.872,68.564,45.134z"/>
			<path fill="#4E4E4E" d="M67.926,46.096c0.012,0.006,0.064,0.55,0.059,0.594c-0.365-0.087-0.172,0.462-0.041,0.602
				c0.072,0.079,0.189,0.14,0.326,0.188c0.121,0.023,0.244,0.062,0.375,0.11c0.199,0.044,0.396,0.083,0.527,0.119
				c0.211,0.059,0.67,0.014,0.781,0.208c-0.41,0.061-0.877-0.171-1.309-0.327c-0.131-0.032-0.26-0.067-0.375-0.11
				c-0.027-0.006-0.055-0.011-0.08-0.016c-0.086,0.005-0.195-0.033-0.295-0.048c0.211,0.362,0.232,0.736,0.613,0.997
				c0.521,0.355,1.672,0.198,2.016-0.377c0.275-0.466,0.098-1.125-0.336-1.427c-0.191-0.133-0.547-0.264-0.771-0.151
				c-0.105,0.054-0.123,0.167-0.205,0.232c-0.135,0.105-0.32,0.168-0.479,0.229c-0.014-0.004-0.027-0.01-0.037-0.015
				c-0.078-0.033-0.063-0.025-0.188-0.011c0.168-0.094,0.316-0.213,0.473-0.345c-0.148-0.116-0.48-0.063-0.592,0.104
				C68.223,46.49,68.123,46.209,67.926,46.096z"/>
			<path fill="#4E4E4E" d="M68.27,47.479c0.115,0.043,0.244,0.078,0.375,0.11C68.514,47.54,68.391,47.502,68.27,47.479z"/>
		</g>
	</g>
	<g>
		<path fill="#010202" d="M36.216,94.226l-3.726-9.229h-0.055c0.036,0.565,0.055,1.144,0.055,1.736v7.492h-0.67v-9.994h1.08
			l3.541,8.791h0.041l3.541-8.791h1.053v9.994h-0.704v-7.574c0-0.528,0.027-1.075,0.082-1.641h-0.055l-3.739,9.215H36.216z"/>
		<path fill="#010202" d="M48.075,94.226l-0.171-1.176H47.85c-0.374,0.479-0.758,0.817-1.152,1.016
			c-0.394,0.197-0.859,0.297-1.397,0.297c-0.729,0-1.297-0.187-1.702-0.561s-0.608-0.891-0.608-1.552
			c0-0.725,0.302-1.287,0.905-1.688c0.604-0.401,1.479-0.613,2.622-0.636l1.415-0.041v-0.492c0-0.706-0.144-1.239-0.431-1.6
			s-0.75-0.54-1.388-0.54c-0.688,0-1.401,0.191-2.14,0.574l-0.253-0.588c0.815-0.383,1.622-0.574,2.42-0.574
			c0.815,0,1.425,0.212,1.828,0.636s0.605,1.085,0.605,1.982v4.942H48.075z M45.341,93.747c0.793,0,1.418-0.227,1.876-0.68
			c0.458-0.454,0.688-1.084,0.688-1.891v-0.731L46.605,90.5c-1.044,0.05-1.788,0.213-2.232,0.489
			c-0.444,0.275-0.666,0.705-0.666,1.288c0,0.465,0.143,0.826,0.427,1.084C44.419,93.618,44.821,93.747,45.341,93.747z"/>
		<path fill="#010202" d="M60.171,94.226v-4.874c0-0.725-0.142-1.253-0.424-1.586s-0.716-0.499-1.299-0.499
			c-0.761,0-1.324,0.21-1.688,0.629s-0.547,1.078-0.547,1.976v4.354h-0.69v-5.079c0-1.253-0.574-1.88-1.723-1.88
			c-0.779,0-1.347,0.227-1.702,0.681c-0.355,0.453-0.533,1.179-0.533,2.177v4.102h-0.677v-7.431h0.561l0.144,1.019h0.041
			c0.205-0.369,0.497-0.655,0.875-0.857c0.378-0.203,0.795-0.305,1.251-0.305c1.171,0,1.923,0.439,2.256,1.319h0.027
			c0.241-0.424,0.566-0.75,0.974-0.978c0.408-0.228,0.872-0.342,1.392-0.342c0.812,0,1.42,0.217,1.825,0.649
			s0.608,1.121,0.608,2.064v4.86H60.171z"/>
		<path fill="#010202" d="M62.62,85.633c0.333-0.36,0.662-0.751,0.987-1.172c0.326-0.422,0.549-0.742,0.667-0.961h0.964v0.116
			c-0.164,0.237-0.443,0.552-0.838,0.943c-0.394,0.392-0.828,0.786-1.302,1.183H62.62V85.633z M63.81,94.226h-0.677v-7.431h0.677
			V94.226z"/>
		<path fill="#010202" d="M69.145,87.383h-1.75v6.843h-0.677v-6.843h-1.381v-0.396l1.381-0.253v-0.574
			c0-0.911,0.167-1.58,0.502-2.006c0.335-0.427,0.884-0.64,1.645-0.64c0.41,0,0.82,0.062,1.23,0.185l-0.157,0.588
			c-0.364-0.114-0.727-0.171-1.087-0.171c-0.528,0-0.903,0.156-1.125,0.469c-0.221,0.312-0.331,0.818-0.331,1.521v0.69h1.75V87.383z
			"/>
		<path fill="#010202" d="M73.416,94.362c-1.08,0-1.922-0.333-2.526-0.998c-0.604-0.665-0.905-1.598-0.905-2.796
			c0-1.185,0.292-2.134,0.875-2.847c0.583-0.714,1.369-1.07,2.358-1.07c0.875,0,1.565,0.306,2.071,0.916s0.759,1.44,0.759,2.488
			v0.547h-5.353c0.009,1.021,0.247,1.8,0.714,2.338c0.468,0.538,1.137,0.807,2.007,0.807c0.424,0,0.796-0.029,1.117-0.089
			s0.729-0.187,1.221-0.383v0.615c-0.419,0.183-0.807,0.307-1.162,0.372C74.236,94.329,73.845,94.362,73.416,94.362z M73.218,87.253
			c-0.716,0-1.29,0.236-1.723,0.708s-0.686,1.151-0.759,2.04h4.594c0-0.861-0.187-1.534-0.561-2.02S73.879,87.253,73.218,87.253z"/>
		<path fill="#010202" d="M80.916,86.651c0.314,0,0.651,0.032,1.012,0.096l-0.13,0.649c-0.31-0.077-0.631-0.116-0.964-0.116
			c-0.634,0-1.153,0.269-1.559,0.807s-0.608,1.217-0.608,2.037v4.102H77.99v-7.431h0.574l0.068,1.34h0.048
			c0.306-0.547,0.631-0.931,0.978-1.151C80.005,86.762,80.424,86.651,80.916,86.651z"/>
		<path fill="#010202" d="M89.339,90.5c0,1.212-0.294,2.159-0.882,2.841c-0.588,0.681-1.399,1.021-2.434,1.021
			c-0.651,0-1.226-0.157-1.723-0.472s-0.877-0.766-1.142-1.354s-0.396-1.267-0.396-2.037c0-1.212,0.294-2.156,0.882-2.833
			s1.395-1.016,2.42-1.016c1.021,0,1.821,0.343,2.402,1.029C89.048,88.366,89.339,89.306,89.339,90.5z M83.474,90.5
			c0,1.021,0.225,1.817,0.673,2.39c0.449,0.571,1.084,0.857,1.904,0.857s1.455-0.286,1.903-0.857
			c0.449-0.572,0.674-1.369,0.674-2.39c0-1.025-0.227-1.82-0.681-2.386c-0.453-0.565-1.09-0.848-1.91-0.848
			s-1.453,0.281-1.897,0.845C83.695,88.674,83.474,89.47,83.474,90.5z"/>
		<path fill="#010202" d="M95.93,92.291c0,0.665-0.253,1.177-0.759,1.535c-0.506,0.357-1.224,0.536-2.153,0.536
			c-0.993,0-1.782-0.152-2.365-0.458v-0.731c0.747,0.374,1.536,0.561,2.365,0.561c0.733,0,1.291-0.122,1.671-0.365
			c0.381-0.244,0.571-0.569,0.571-0.975c0-0.374-0.151-0.688-0.455-0.943c-0.303-0.255-0.801-0.506-1.493-0.752
			c-0.743-0.269-1.265-0.5-1.565-0.693c-0.301-0.194-0.527-0.413-0.681-0.656c-0.152-0.244-0.229-0.542-0.229-0.893
			c0-0.556,0.233-0.996,0.7-1.319c0.468-0.323,1.12-0.485,1.959-0.485c0.802,0,1.563,0.15,2.283,0.451l-0.253,0.615
			c-0.729-0.301-1.406-0.451-2.03-0.451c-0.606,0-1.087,0.101-1.442,0.301s-0.533,0.479-0.533,0.834c0,0.388,0.138,0.697,0.413,0.93
			c0.276,0.232,0.815,0.492,1.617,0.779c0.67,0.241,1.157,0.459,1.463,0.653c0.306,0.193,0.534,0.413,0.687,0.659
			C95.854,91.669,95.93,91.958,95.93,92.291z"/>
	</g>
</g>
<g id="Grabar_-_Gris_1_">
</g>
<g id="Grabar_-_Gris">
</g>
</svg>
