<?xml version="1.0" encoding="utf-8"?>
<!-- Generator: Adobe Illustrator 16.0.0, SVG Export Plug-In . SVG Version: 6.00 Build 0)  -->
<!DOCTYPE svg PUBLIC "-//W3C//DTD SVG 1.1//EN" "http://www.w3.org/Graphics/SVG/1.1/DTD/svg11.dtd">
<svg version="1.1" id="Capa_1" xmlns="http://www.w3.org/2000/svg" xmlns:xlink="http://www.w3.org/1999/xlink" x="0px" y="0px"
	 width="126px" height="126px" viewBox="0 0 126 126" enable-background="new 0 0 126 126" xml:space="preserve">
<g>
	<g>
		<g>
			<path fill="#4E4E4E" d="M47.27,52.844l-0.037-0.372c-0.012-0.127-0.029-0.236-0.035-0.383l0.006-0.375
				c-0.006-0.502,0.037-1,0.076-1.499c0.086-0.791,0.213-1.572,0.389-2.346c-0.307-0.051-0.65-0.07-0.93-0.2
				c-0.4-0.188-0.775-0.445-1.18-0.632c-0.842-0.394-1.873-0.163-2.732,0.14c-0.945,0.331-1.955,0.879-2.412,1.435
				c-0.594,0.72-0.58,1.848-0.797,2.711c-0.244,0.969-0.922,1.746-0.971,2.794c-0.053,1.126,0.525,2.191,0.883,3.228
				c0.381,1.102,0.516,2.503,1.182,3.478c0.67,0.979,1.953,1.476,2.74,2.363c-0.012-0.368,0.197-0.542,0.268-0.882
				c0.303-1.433,0.498-2.624-0.074-3.98c-0.596-1.418,0.066-3.139,0.658-4.447c0.207-0.458,0.605-0.827,0.867-1.254
				c0.264-0.427,0.305-0.996,0.572-1.38c0.725,0.521,1.004,2.309,1.926,2.838c-0.119-0.275-0.227-0.56-0.305-0.858L47.27,52.844z"/>
			<path fill="#4E4E4E" d="M49.527,41.813c0.063-0.243,0.17-0.478,0.258-0.718c0.115-0.22,0.215-0.459,0.367-0.67
				c0.137-0.201,0.316-0.403,0.563-0.506c-0.846-0.571-1.773-1.038-2.662-1.521c-0.799-0.437-1.643-0.825-2.451-1.249
				c-0.861-0.458-1.869-0.534-2.818-0.365c-0.713,0.126-1.385,0.538-1.924,1.012c-0.33,0.291-0.859,0.883-0.594,1.332
				c0.285,0.482,0.783,0.778,1.096,1.238c0.266,0.391,0.412,0.761,0.869,0.967c0.408,0.182,0.715,0.276,1.045,0.601
				c0.283,0.278,0.439,0.612,0.682,0.919c0.322,0.409,0.758,0.354,1.217,0.485c0.424,0.121,0.701,0.327,1.043,0.597
				c0.496,0.393,1.047,0.715,1.494,1.166c0.176,0.18,0.332,0.457,0.498,0.723c0.146-0.38,0.297-0.758,0.471-1.126
				C49.09,43.784,49.229,42.779,49.527,41.813z M42.424,39.091c-0.182,0.144-0.443,0.128-0.566-0.068
				c-0.049-0.077-0.076-0.245-0.068-0.333C41.85,37.923,43.008,38.628,42.424,39.091z"/>
			<path fill="#4E4E4E" d="M57.883,39.778c0.484-0.019,0.982-0.096,1.502-0.119c0.248-0.019,0.549-0.01,0.799,0.007
				c0.117,0.014,0.211,0.02,0.34,0.038c0.568-0.539,1.143-1.051,1.988-1.122c0.611-0.051,1.309,0.113,1.949,0.102
				c0.766-0.015,1.639-0.02,2.318,0.358c0.682,0.378,1.313,0.859,2.047,1.158c0.037-0.002,0.246-0.056,0.258-0.059
				c0.211-0.073,0.387-1.001,0.387-1.195c0-0.473-0.172-0.745-0.547-1.005c-0.689-0.477-1.367-1.005-2.08-1.47
				c-0.561-0.366-1.135-0.693-1.703-1.04c-0.828-0.507-1.951-1.187-2.941-1.289c-1.088-0.109-2.354,0.523-3.453,0.625
				c-0.955,0.088-1.453,0.598-2.193,1.204c-0.639,0.521-1.469,1.368-1.139,2.266c0.121,0.322,0.412,0.563,0.471,0.913
				c0.027,0.159-0.002,0.325-0.045,0.496c0.195,0.004,0.391,0.015,0.58,0.034C56.93,39.751,57.396,39.811,57.883,39.778z"/>
			<path fill="#4E4E4E" d="M71.549,67.864c-0.492,0.072-0.988,0.114-1.486,0.154c-0.496,0.044-0.992,0.092-1.494,0.101
				c-0.498,0.009-1.002,0.049-1.5,0.038l-1.496-0.021l-0.426-0.042c0.148,0.28,0.34,0.556,0.502,0.817
				c0.572,0.92,1.096,1.888,1.488,2.899c0.207,0.531,0.324,1.071,0.594,1.576c0.65,1.212,1.426,2.664,2.391,3.654
				c0.564,0.579,1.371,1.035,2.172,1.146c0.615,0.085,1.639,0.353,2.223,0.127c-0.34-0.271-1-1.265-0.84-1.669
				c0.113-0.284,1.203-0.979,1.516-1.121c-0.268-0.512-0.498-1.1-0.48-1.68c0.02-0.548,0.363-0.653,0.561-1.077
				c0.293-0.621,0.076-0.4-0.352-0.889c-0.533-0.607,0.117-0.985-0.588-1.609c-0.699-0.616-1.123-1.221-1.445-2.077
				c-0.064-0.173-0.111-0.33-0.154-0.476c-0.145,0.016-0.293,0.039-0.441,0.055L71.549,67.864z"/>
			<path fill="#4E4E4E" d="M87.229,60.195c-0.961-0.88-2.258-1.473-3.34-2.204c-1.068-0.721-2.232-1.276-3.4-1.806
				c-0.455-0.207-1.197-0.624-1.887-0.804l0.037,0.117c0.133,0.474,0.326,0.939,0.484,1.413l0.504,1.442
				c0.16,0.481,0.279,0.966,0.422,1.45c0.119,0.457,0.203,0.891,0.299,1.333c0.082-0.005,0.164-0.017,0.246-0.03
				c0.832-0.153,1.361-0.293,1.693,0.616c0.256,0.711,0.018,1.83,1.006,1.07c0.885-0.68,1.219-0.709,1.664,0.403
				c0.223-0.222,0.43-0.485,0.621-0.727c0.258,0.132,1.018,0.658,1.299,0.519c0.396-0.199,0.123-0.995,0.119-1.298
				c0.359-0.048,0.74,0.096,1.002,0.354C88.076,61.32,87.75,60.67,87.229,60.195z"/>
			<path fill="#4E4E4E" d="M79.811,61.421c-0.027-0.114-0.055-0.228-0.082-0.345c-0.09-0.374-0.176-0.75-0.273-1.102
				c-0.152-0.479-0.287-0.966-0.453-1.432l-0.523-1.394c-0.172-0.476-0.367-0.94-0.516-1.431l-0.125-0.411l-0.1-0.325l-0.115-0.368
				l-0.111-0.33c-0.072-0.262-0.191-0.413-0.285-0.616c-0.131-0.194-0.248-0.394-0.404-0.583c-0.289-0.387-0.627-0.765-0.936-1.192
				c-0.076-0.107-0.156-0.212-0.229-0.324l-0.205-0.353l-0.373-0.641c-0.131-0.214-0.242-0.451-0.389-0.638l-0.426-0.569
				c-0.072-0.095-0.137-0.195-0.213-0.286l-0.25-0.265l-0.494-0.527c-0.178-0.167-0.367-0.316-0.549-0.474l-0.273-0.234
				c-0.041-0.034-0.104-0.091-0.127-0.104l-0.158-0.104l-1.254-0.837c-0.428-0.284-0.84-0.536-1.277-0.851
				c-0.197-0.161-0.393-0.305-0.588-0.484l-0.572-0.521c-0.367-0.34-0.729-0.677-1.107-0.95c-0.102-0.071-0.205-0.153-0.303-0.214
				l-0.299-0.177c-0.191-0.121-0.422-0.224-0.633-0.334c-0.883-0.411-1.836-0.733-2.77-1.215c-0.934-0.487-1.703-1.123-2.602-1.387
				l-0.336-0.09l-0.355-0.057c-0.061-0.006-0.113-0.01-0.168-0.016c-0.176-0.016-0.346-0.026-0.539-0.022
				c-0.486-0.003-0.986,0.046-1.506,0.046c-0.26-0.005-0.521-0.008-0.785-0.053c-0.27-0.033-0.494-0.082-0.748-0.127
				c-0.209-0.029-0.418-0.053-0.625-0.063c-0.271-0.016-0.541-0.009-0.813,0.051c-0.49,0.073-0.971,0.214-1.5,0.234
				c-0.514,0.038-1.021-0.001-1.527-0.046c-0.213-0.019-0.42-0.028-0.613,0.015c-0.031,0.006-0.063,0.012-0.092,0.023
				c-0.217,0.071-0.387,0.249-0.529,0.445c-0.148,0.194-0.248,0.425-0.375,0.643c-0.09,0.229-0.197,0.451-0.268,0.692
				c-0.311,0.948-0.457,1.959-0.883,2.883c-0.178,0.389-0.336,0.785-0.482,1.184c-0.195,0.532-0.367,1.068-0.508,1.616
				c-0.047,0.197-0.092,0.395-0.129,0.594c-0.158,0.773-0.268,1.553-0.318,2.34c-0.016,0.492-0.037,0.987-0.01,1.479l0.014,0.371
				c0.008,0.101,0.031,0.238,0.047,0.356l0.055,0.369l0.102,0.339c0.117,0.375,0.283,0.732,0.475,1.079
				c0.279,0.499,0.613,0.975,0.953,1.45c0.289,0.406,0.576,0.822,0.842,1.254c0.256,0.422,0.508,0.86,0.756,1.288
				c0.49,0.857,1.02,1.67,1.684,2.347c0.34,0.338,0.693,0.629,1.102,0.933l0.592,0.452c0.193,0.155,0.391,0.306,0.592,0.445
				l1.199,0.851l1.244,0.789c0.852,0.484,1.705,0.97,2.605,1.36c0.223,0.1,0.445,0.208,0.67,0.306l0.689,0.247
				c0.463,0.164,0.918,0.347,1.398,0.444l0.713,0.178c0.24,0.061,0.475,0.129,0.721,0.15l0.82,0.114l0.639,0.089l1.482,0.073
				c0.496,0.034,0.984-0.007,1.48-0.008c0.492,0,0.986-0.04,1.482-0.078c0.49-0.032,0.986-0.067,1.479-0.13l0.74-0.083
				c0.131-0.011,0.264-0.03,0.4-0.044c0.115-0.011,0.234-0.019,0.359-0.012c0.51,0.02,1,0.114,1.484,0.127
				c0.236,0.008,0.488-0.013,0.648-0.105c0.211-0.13,0.311-0.288,0.434-0.52c0.061-0.108,0.139-0.244,0.273-0.333
				c0.135-0.09,0.285-0.114,0.42-0.122c0.281-0.01,0.514,0.032,0.766,0.044c0.887,0.063,1.826-0.082,2.51-0.609
				c-0.092-0.078-0.18-0.157-0.26-0.243c-0.127-0.141-0.244-0.284-0.355-0.435c-0.223-0.297-0.42-0.606-0.621-0.897l-0.285-0.419
				l0.566,0.129c0.012,0.003,0.021,0.007,0.031,0.011l0.059,0.017c0.037,0.014,0.088,0.022,0.131,0.031
				c0.094,0.018,0.189,0.035,0.285,0.048c0.193,0.028,0.391,0.052,0.588,0.072l0.594,0.063l0.217,0.021
				C80.232,63.134,80.004,62.274,79.811,61.421z"/>
		</g>
	</g>
	<text transform="matrix(1 0 0 1 38.7871 94.2266)" fill="#010202" font-family="'OpenSans-Light'" font-size="14">Reptiles</text>
</g>
<g id="Grabar_-_Gris_1_">
</g>
<g id="Grabar_-_Gris">
</g>
</svg>
