<?xml version="1.0" encoding="utf-8"?>
<!-- Generator: Adobe Illustrator 16.0.0, SVG Export Plug-In . SVG Version: 6.00 Build 0)  -->
<!DOCTYPE svg PUBLIC "-//W3C//DTD SVG 1.1//EN" "http://www.w3.org/Graphics/SVG/1.1/DTD/svg11.dtd">
<svg version="1.1" id="Capa_1" xmlns="http://www.w3.org/2000/svg" xmlns:xlink="http://www.w3.org/1999/xlink" x="0px" y="0px"
	 width="126px" height="126px" viewBox="0 0 126 126" enable-background="new 0 0 126 126" xml:space="preserve">
<g>
	<g>
		<path fill-rule="evenodd" clip-rule="evenodd" fill="#4E4E4E" d="M92.555,70.477c-0.961-1.523-2.328-2.538-3.982-3.177
			c-1.381-0.537-2.787-1.024-4.176-1.552c-0.203-0.079-0.492-0.243-0.525-0.404c-0.156-1.011-0.258-2.027-0.375-3.048
			c-0.162-1.42,0.078-2.925-0.906-4.165c-0.047-0.06-0.061-0.164-0.068-0.25c-0.1-0.683-0.188-1.364-0.293-2.177
			c0.414-0.454,0.326-1.029-0.107-1.642c-0.148-0.206-0.166-0.54-0.141-0.811c0.078-0.942-0.064-1.84-0.535-2.664
			c-0.314-0.549-0.643-1.096-0.936-1.659c-0.121-0.223-0.166-0.489-0.236-0.732c0.063-0.054,0.123-0.108,0.191-0.159
			c1.098,0.646,2.191,1.294,3.318,1.96c0.139-0.521-0.047-0.76-0.691-1.058c-1.307-0.61-2.582-1.276-3.879-1.898
			c-0.17-0.075-0.396-0.023-0.598-0.03c0.027,0.191-0.004,0.438,0.1,0.574c0.477,0.599,0.959,1.198,1.494,1.744
			c1.088,1.117,1.381,2.456,1.277,4.081c-0.494-0.538-0.912-0.93-1.254-1.386c-1.012-1.31-2.23-2.339-3.768-2.954
			c-1.428-0.561-2.869-0.769-4.205-0.078c-0.783-0.526-1.506-1.077-2.289-1.518c-0.375-0.205-0.945-0.387-1.285-0.252
			c-1.119,0.441-2.254,0.933-3.225,1.614c-0.885,0.619-1.715,1.269-2.756,1.661c-0.801,0.305-1.494,0.9-2.234,1.365
			c-0.029-0.058-0.064-0.119-0.1-0.172c-0.313-0.2-0.621-0.392-0.996-0.625c0.473-1.332,0.939-2.65,1.406-3.966
			c0.344-0.983,0.727-1.943,0.979-2.94c0.07-0.289-0.252-0.671-0.383-1.011c-0.248,0.233-0.559,0.425-0.723,0.708
			c-0.23,0.416-0.34,0.898-0.521,1.346c-0.789,1.962-1.813,3.857-1.867,6.103c-0.436,0.054-0.875,0.104-1.336,0.162
			c-0.463-2.474-1.982-1.67-3.396-1.047c-0.006-2.466-0.006-2.466-1.637-3.036c-0.053-0.295-0.123-0.614-0.16-0.936
			c-0.246-1.932-0.775-3.778-1.707-5.493c-0.135-0.245-0.389-0.45-0.645-0.592c-1.016-0.599-2.129-0.377-3.213-0.283
			c-2.016,0.17-3.896,0.861-5.771,1.533c-0.619,0.226-1.242,0.426-1.865,0.639c0.01,0.053,0.031,0.104,0.057,0.162
			c0.436-0.107,0.863-0.25,1.311-0.319c0.859-0.127,1.721-0.323,2.568-0.287c1.09,0.043,2.125,0.04,3.17-0.354
			c0.963-0.357,1.953-0.615,2.92-0.912c1.236,1.913,0.771,4.118,1.498,6.063c-0.291-0.081-0.479-0.251-0.688-0.332
			c-0.9-0.342-1.777-0.738-2.699-0.968c-2.494-0.624-6.48,2.029-7.461,4.019c-0.861,1.721-1.271,3.525-1.406,5.383
			c-0.074,1.139,0.457,2.199,1.371,2.948c0.521,0.427,1.166,0.715,1.752,1.066c-0.01,0.021-0.023,0.038-0.041,0.057
			c0.996,0.082,1.994,0.202,3,0.189c-0.096-0.118-0.199-0.237-0.301-0.356c3.494-0.499,5.572-2.684,6.721-5.941
			c0.24-0.036,0.486-0.039,0.709-0.11c0.861-0.28,0.857-0.286,1.055,0.631c0.025,0.146,0.064,0.316,0.145,0.427
			c0.738,0.92,1.488,1.834,2.225,2.743c0.051,0.071,0.104,0.146,0.186,0.267c-0.5,0.471-0.961,0.904-1.559,1.47
			c0.08-1.049-0.395-1.537-1.254-1.605c-0.238-0.013-0.547,0.118-0.744,0.277c-0.414,0.34-0.748,0.791-1.17,1.115
			c-1.236,0.952-2.656,1.547-3.879,2.435c-1.547,1.122-2.539,3.309-3.775,4.762c-1.605,1.867-3.309,3.668-4.861,5.591
			c-0.789,0.979-1.803,1.646-2.777,2.351c-1.084,0.779-2.25,1.443-3.383,2.146c-0.479,0.301-0.439,0.562-0.043,0.859
			c0.34-0.348,0.609-0.717,0.965-0.953c1.029-0.692,2.117-1.285,3.139-1.992c0.889-0.62,1.803-1.256,2.545-2.04
			c1.078-1.139,2.119-2.312,3.172-3.486c-0.234,0.185-0.463,0.367-0.695,0.541c0.232-0.174,0.461-0.356,0.695-0.541
			c3.068-3.45,6.904-6.027,9.859-9.464c0.131,0.213,0.223,0.451,0.279,0.705c0.242,1.004,1.035,1.413,2.041,1.104
			c0.676-0.212,1.389-0.317,2.072-0.515c0.676-0.192,1.211-0.585,1.498-1.282c0.104-0.255,0.344-0.461,0.525-0.684
			c-0.25,1.483,0.453,2.789,1.559,3.021c0.418,0.483,0.658,0.883,1.014,1.138c0.342,0.248,0.793,0.343,1.199,0.506
			c-0.014,0.071-0.021,0.139-0.027,0.209c0.045-0.393,3.273-1.7,3.693-1.854c0.313,1.692,0.369,3.383,0.773,5.063
			c0.539,2.248,1.619,4.222,2.404,6.38c0.521,1.42,1.004,2.855,1.832,4.143c0.139,0.216,0.152,0.519,0.313,0.714
			c0.561,0.686,1.152,1.341,1.768,2.053c0.559-0.209,0.293-0.557,0.045-0.858c-0.461-0.586-1.008-1.104-1.416-1.721
			c-1.037-1.621-1.645-3.422-2.189-5.241c-1.318-2.144-1.311-5.31-1.023-7.932c-0.301-0.077-0.586-0.173-0.705-0.367
			c-0.453-0.751-0.703-1.635-1.021-2.468c-0.031-0.085,0.025-0.205,0.051-0.402c1.402-0.435,2.82-0.862,4.332-1.33
			c0.357,0.979,0.68,1.876,0.996,2.744c1.041,1.779,1.93,3.652,2.678,5.588c0.07,0.024,0.131,0.054,0.191,0.08
			c0.096-0.171,0.254-0.46,0.436-0.808c0.313,0.336,0.613,0.555,0.76,0.848c0.438,0.9,0.803,1.833,1.225,2.739
			c0.074,0.167,0.311,0.267,0.467,0.398c0.039-0.028,0.078-0.056,0.121-0.083c0.109,0.411,0.223,0.823,0.361,1.347
			c0.24,0.024,0.631,0.071,1.063,0.118c0.014-0.062,0.053-0.197,0.074-0.269c0.791-0.029,1.648-0.191,1.906,0.839
			c0.145-0.333,0.279-0.633,0.471-1.103c-0.543-0.148-1.088-0.289-1.619-0.452c-0.311-0.096-0.623-0.193-0.91-0.347
			c-1.34-0.728-1.389-1.832-1.701-3.119c-0.738-3.117-3.467-5.381-5.232-7.964c-0.871-1.275-1.939-2.113-3.605-1.965
			c0.926-0.702,1.502-1.988,2.961-1.571c0.039,0.126,0.08,0.212,0.086,0.298c0.014,0.146,0.029,0.303,0.014,0.455
			c-0.127,1.301,0.477,2.259,1.559,2.8c2.258,1.118,4.52,2.214,6.852,3.145c1.963,0.792,2.873,0.008,2.73-2.099
			c-0.023-0.449-0.07-0.963,0.609-1.296c0.135,0.376,0.334,0.699,0.355,1.035c0.043,0.657-0.033,1.313-0.029,1.968
			c0.008,1.093,0.012,2.184,0.086,3.268c0.01,0.255,0.217,0.621,0.439,0.721c1.023,0.473,2.059,0.925,3.123,1.284
			c2.406,0.809,4.238,2.281,5.488,4.495c0.238,0.433,0.652,0.758,0.984,1.137c0.082-0.052,0.16-0.095,0.238-0.141
			C93.277,71.8,92.969,71.132,92.555,70.477z M59.865,60.026c0.146-0.686,0.301-1.404,0.498-2.321
			c0.252,0.907,0.072,1.804,1.039,2.179C60.777,60.457,60.506,60.482,59.865,60.026z M70.4,52.02
			c-0.238-0.204-0.508-0.333-0.627-0.549c-0.461-0.854-1.004-1.626-2.127-2.135c0.801-0.437,1.441-0.79,2.051-1.121
			c0.4,0.615,0.76,1.154,1.096,1.708c0.07,0.117,0.096,0.291,0.064,0.421C70.742,50.837,70.596,51.317,70.4,52.02z"/>
		<path fill-rule="evenodd" clip-rule="evenodd" fill="#4E4E4E" d="M61.402,59.884c-0.625,0.573-0.896,0.599-1.537,0.143
			c0.146-0.686,0.301-1.404,0.498-2.321C60.615,58.612,60.436,59.509,61.402,59.884z"/>
	</g>
	<path fill="#4E4E4E" d="M53.037,47.487c-0.98-0.794-2.416-1.069-3.574-1.561c-0.279,0.714,1,0.853,1.514,1.059
		c0.367,0.148,0.703,0.407,1.105,0.496C52.166,47.502,53.084,47.522,53.037,47.487z"/>
	<path fill="#4E4E4E" d="M60.498,51.823c-0.027-0.009-0.01-0.205-0.01-0.235c-0.012-0.072-0.018-0.146-0.039-0.217
		c-0.043-0.135-0.113-0.249-0.225-0.339c-0.213-0.195-0.502-0.271-0.783-0.292c-0.188-0.02-0.377-0.006-0.57-0.006
		c-0.205,0-0.414,0.01-0.623,0.042c-0.117,0.019-0.275,0.056-0.363,0.148c-0.076,0.08,0.01,0.143,0.059,0.201
		c0.053,0.063,0.064,0.157,0.152,0.177c0.152,0.037,0.33,0.018,0.479-0.032c0.131-0.039,0.256-0.027,0.393,0
		c0.344,0.057,0.688,0.142,1.012,0.279C60.154,51.618,60.328,51.712,60.498,51.823z"/>
	<path fill="#4E4E4E" d="M68.324,49.3c0.623,0.135,1.123,0.807,1.771,0.764c0.41-0.023,0.754-0.363,1.045-0.624
		c0.346-0.296,0.637-0.686,1.045-0.896c0.33-0.173,1.006,0.037,1.154-0.053c-0.861,0.513-2.65,1.034-2.604,2.278
		c-0.801-0.323-1.545-0.762-2.324-1.085c-1.154-0.462-2.373-0.198-3.545,0.04c-0.313,0.063-1.035,0.371-1.348,0.239
		c-0.521-0.201-0.063-0.445,0.33-0.529c0.775-0.164,1.662-0.207,2.455-0.243C66.975,49.161,67.668,49.153,68.324,49.3z"/>
	<path fill="#4E4E4E" d="M60.947,60.243c1.396-1.033,2.902-1.08,4.545-1.376c0.217-0.039-0.232,1.629,0.553,1.37
		c-0.059,0.019-0.041-0.9-0.059-0.964c-0.113-0.31-0.146-0.329-0.447-0.472c-0.5-0.215-1.232-0.07-1.74,0.02
		c-1.15,0.207-2.281,0.602-3.363,1.049"/>
	<text transform="matrix(1 0 0 1 27.3486 94.2266)" fill="#010202" font-family="'OpenSans-Light'" font-size="14">Artrópodos</text>
</g>
<g id="Grabar_-_Gris_1_">
</g>
<g id="Grabar_-_Gris">
</g>
</svg>
