<?xml version="1.0" encoding="utf-8"?>
<!-- Generator: Adobe Illustrator 16.0.0, SVG Export Plug-In . SVG Version: 6.00 Build 0)  -->
<!DOCTYPE svg PUBLIC "-//W3C//DTD SVG 1.1//EN" "http://www.w3.org/Graphics/SVG/1.1/DTD/svg11.dtd">
<svg version="1.1" id="Capa_1" xmlns="http://www.w3.org/2000/svg" xmlns:xlink="http://www.w3.org/1999/xlink" x="0px" y="0px"
	 width="126px" height="126px" viewBox="0 0 126 126" enable-background="new 0 0 126 126" xml:space="preserve">
<g>
	<g>
		<g>
			<path fill="#4E4E4E" d="M66.785,60.71c0.039-0.009,0.072-0.012,0.105-0.015c0.023-0.03,0.047-0.062,0.07-0.09
				C66.902,60.658,66.842,60.698,66.785,60.71z"/>
			<path fill="#4E4E4E" d="M85.168,53.091c0.092,0.014,0.07-0.094,0.057-0.204c-0.059-0.097-0.125-0.196-0.203-0.293
				C85.053,52.773,85.109,52.917,85.168,53.091z"/>
			<g>
				<path fill-rule="evenodd" clip-rule="evenodd" fill="#4E4E4E" d="M53.518,35.357c-0.02-0.071-0.023-0.163-0.008-0.276
					c-0.285-0.451-0.803-0.136-1.109,0.064c-0.547,0.356-1.107,0.746-1.646,1.14c0.305-0.142,0.611-0.265,0.883-0.378
					C52.242,35.658,52.871,35.458,53.518,35.357z"/>
			</g>
			<g>
				<path fill-rule="evenodd" clip-rule="evenodd" fill="#4E4E4E" d="M71.902,43.999c0.303,0.622,0.674,1,1.365,1.153
					c0.232,0.052,0.484,0.099,0.725,0.168c0.08-0.063,0.221-0.126,0.443-0.188c0.32-0.092,0.73,0.199,0.961-0.146
					c0.193-0.331,0.107-0.521-0.26-0.568c-0.563-0.044-1.012,0.032-1.596-0.134c-1.018-0.288-1.383-1.154-1.809-2.025
					C71.721,42.846,71.633,43.442,71.902,43.999z"/>
			</g>
			<g>
				<g>
					<path fill-rule="evenodd" clip-rule="evenodd" fill="#4E4E4E" d="M85.225,52.888c0.014,0.109,0.035,0.217-0.057,0.204
						c-0.059-0.174-0.115-0.318-0.146-0.497C85.1,52.691,85.166,52.791,85.225,52.888c0-0.008-0.002-0.013-0.002-0.02
						c-0.461-0.858-0.803-1.793-1.41-2.566c-0.396-0.486-0.932-0.859-0.977-1.471c-0.217-0.697-0.779-1.019-1.465-1.133
						c-0.691-0.042-1.053-0.533-1.656-0.835c-0.744-0.374-1.084-0.746-1.971-0.861c-0.68-0.09-1.285-0.154-1.965-0.062
						c-0.336,0.042-1.568-0.135-1.824-0.398c-0.48-0.027-1.006-0.288-1.369-0.521c-0.516-0.332-0.717-0.869-0.893-1.434
						c-0.137-0.44-0.277-1.199-0.189-1.776c-0.102-0.188-0.211-0.37-0.336-0.542c-0.4-0.422-0.703-1.336-1.328-1.458
						c-0.504-0.101-1.008,0.06-1.516,0.076c-0.912,1.033-0.859,2.324-0.275,3.51c-0.445,0.021-1.561-0.202-1.932-0.432
						c-0.818-0.51-0.898-0.241-1.689-0.375c-0.395-0.062-0.881-0.582-1.326-0.335c-0.535,0.298-0.721,0.144-1.262-0.104
						c-0.299-0.022-1.59-0.082-1.799,0.055c-0.609,0.401-1.074,0.022-1.785,0.284c-0.836-0.122-1.949,0.604-2.742,0.276
						c0.17-0.53,0.482-1.004,0.563-1.566c0.014,0,0.025,0,0.037,0c0.189-0.768,0.285-1.551,0.494-2.316
						c0.213-0.795,0.352-1.705-0.059-2.462c-0.33-0.607-0.945-0.877-1.613-0.92c-0.678-0.044-1.627,0.067-2.262,0.314
						c-0.625,0.246-1.342,0.417-1.914,0.766c-0.24,0.144-0.535,0.208-0.814,0.295c-1.473,1.01-3.16,1.401-4.123,3.119
						c-0.996,1.774-2.184,3.33-0.535,5.196c0.24,0.273,0.57,0.398,0.807,0.64c-0.227,0.411-0.359,0.867-0.498,1.312
						c-0.24,0.781-1.104,1.542-1.182,2.236c-0.326,0.705,0.273,1.419,0.57,2.061c0.305,0.666,0.348,1.612,0.412,2.339
						c-2.318-0.682-3.154,0.577-3.594,2.621c-0.43,1.993,0.354,4.013,1.322,5.729c1.107,1.97,2.732,3.315,4.045,5.096
						c0.654,0.889,1.307,1.714,2.084,2.502c0.76,0.506,0.588,1.255,1.025,2.01c0.49,0.847,0.859,1.87,0.951,2.854
						c0.025,0.247,0.031,0.608,0.371,0.487c0.303-0.309,0.162-0.601,0.174-1.02c0.02-0.603,0.09-1.868,0.971-1.801
						c0.783,0.06,1.924,0.654,2.461,1.22c0.24,0.252,1.678,2.066,1.957,1.774c0.35-0.232-1.01-1.796-1.148-2.003
						c-0.568-0.846-2.918-3.623-0.236-3.399c-0.264,0.697,0.563,0.761,0.887,0.203c0.322-0.559-0.146-0.939-0.619-1.122
						c-1.354-0.524-1.748-1.25-2.389-2.395c-0.063-0.007-0.113-0.015-0.129-0.016c-0.352-0.052-0.703-0.078-1.049-0.169
						c-0.34-0.088-0.674-0.224-1.029-0.233c-0.52-0.015-0.969-0.316-1.479-0.427c-0.264-0.059-0.506-0.133-0.758-0.231
						c-0.465-0.179-0.906-0.412-1.328-0.668c-0.854-0.514-1.631-1.138-2.398-1.771c-0.35-0.287-0.74-0.52-1.088-0.816
						c-0.377-0.324-0.912-0.694-1.107-1.18c0.184,0.149,0.385,0.303,0.576,0.455c0.174,0.136,0.305,0.295,0.502,0.41
						c0.365,0.211,0.684,0.523,1.043,0.75c0.477,0.3,0.857,0.747,1.383,0.975c0.41,0.178,0.813,0.497,1.201,0.738
						c0.779,0.49,1.549,0.723,2.404,1.042c0.441,0.163,0.889,0.29,1.346,0.414c0.461,0.124,0.939,0.132,1.398,0.252
						c0.152,0.04,0.457,0.126,0.68,0.23c0.898,0.215,1.332,0.165,2.135-0.579c0.621-0.571,0.938-1.346,0.938-2.183
						c-0.002-1.964-1.289-2.382-2.037-3.933c1.672,0.829,3.574,0.808,5.402,0.781c0.479-0.008,2.078-0.331,2.354,0.165
						c0.213,0.383-1.508,2.405-1.635,3.06c-0.453,2.17,2.283,2.508,3.842,2.811c0.959,0.187,1.91-0.031,2.83,0.298
						c0.568,0.202,1.859,0.713,1.785,1.427c-0.076,0.737,0.826-0.015,0.363-0.732c-0.371-0.581-1.49-1.25-0.83-2.062
						c0.609-0.747,1.896-0.401,2.658-0.898c0.84-0.498-0.791-0.316-0.803-0.316c-0.584,0.027-2.113,0.119-2.016-0.822
						c0.047-0.449,0.842-1.937,0.096-2.122c-0.275,0.188-0.957,1.962-1.371,0.669c-0.104-0.316-0.098-0.907-0.396-1.098
						c-0.117,0.148-0.246,0.287-0.348,0.454c-0.221,0.357-0.453,0.709-0.77,0.988c-0.426,0.377-1.045,0.883-1.014,1.524
						c0.014,0.196,0.215,0.358,0.223,0.551c-0.131,0.024-0.199-0.135-0.25-0.234c-0.209-0.405,0.059-0.934,0.299-1.262
						c0.346-0.478,0.768-0.911,1.131-1.383c0.133-0.172,0.293-0.457,0.479-0.699c-0.033,0.002-0.066,0.006-0.105,0.015
						c0.057-0.012,0.117-0.052,0.176-0.105c0.045-0.052,0.088-0.099,0.133-0.141c0.277-0.329,0.59-0.888,0.898-1.023
						c0.695-0.297,1.492-0.035,2.203,0.046c2.381,0.274,4.73-0.233,7.076-0.55c1.307-0.178,2.527-0.24,3.762-0.741
						C82.938,57.421,86.768,55.393,85.225,52.888z M78.553,56.349c-0.455,0-0.822-0.366-0.822-0.818
						c0-0.454,0.367-0.822,0.822-0.822c0.449-0.001,0.82,0.366,0.82,0.821C79.373,55.981,79.004,56.349,78.553,56.349z"/>
				</g>
			</g>
			<g>
				<path fill-rule="evenodd" clip-rule="evenodd" fill="#4E4E4E" d="M56.787,36.653c0.061,0.166,0.096,0.343,0.115,0.521
					c0.037-0.314,0.129-0.583,0.348-0.739c0.318-0.23,1.295-0.446,0.805-1.019c-0.293-0.344-0.721,0.105-1.035,0.224
					c-0.422,0.162-0.721,0.155-1,0.093c0.115,0.074,0.225,0.153,0.326,0.245C56.561,36.172,56.701,36.403,56.787,36.653z"/>
			</g>
			<g>
				<path fill-rule="evenodd" clip-rule="evenodd" fill="#4E4E4E" d="M56.121,41.198c0.492-0.016,0.984-0.028,1.475-0.042
					c0.578,0.429,0.986-0.507,0.406-0.809c-0.559-0.291-1.352-0.219-1.398-0.753c-0.023,0.058-0.047,0.114-0.072,0.183
					C56.357,40.238,56.248,40.72,56.121,41.198z"/>
			</g>
		</g>
	</g>
	<text transform="matrix(1 0 0 1 38.5107 94.2266)" fill="#010202" font-family="'OpenSans-Light'" font-size="14">Anfibios</text>
</g>
<g id="Grabar_-_Gris_1_">
</g>
<g id="Grabar_-_Gris">
</g>
</svg>
