<?xml version="1.0" encoding="utf-8"?>
<!-- Generator: Adobe Illustrator 16.0.0, SVG Export Plug-In . SVG Version: 6.00 Build 0)  -->
<!DOCTYPE svg PUBLIC "-//W3C//DTD SVG 1.1//EN" "http://www.w3.org/Graphics/SVG/1.1/DTD/svg11.dtd">
<svg version="1.1" id="Capa_1" xmlns="http://www.w3.org/2000/svg" xmlns:xlink="http://www.w3.org/1999/xlink" x="0px" y="0px"
	 width="126px" height="126px" viewBox="0 0 126 126" enable-background="new 0 0 126 126" xml:space="preserve">
<g>
	<g>
		<g>
			<path fill="#4E4E4E" d="M66.785,60.71c0.039-0.009,0.072-0.012,0.105-0.015c0.023-0.03,0.047-0.062,0.07-0.09
				C66.902,60.658,66.842,60.698,66.785,60.71z"/>
			<path fill="#4E4E4E" d="M85.168,53.091c0.092,0.014,0.07-0.094,0.057-0.204c-0.059-0.097-0.125-0.196-0.203-0.293
				C85.053,52.773,85.109,52.917,85.168,53.091z"/>
			<g>
				<path fill-rule="evenodd" clip-rule="evenodd" fill="#4E4E4E" d="M53.518,35.357c-0.02-0.071-0.023-0.163-0.008-0.276
					c-0.285-0.451-0.803-0.136-1.109,0.064c-0.547,0.356-1.107,0.746-1.646,1.14c0.305-0.142,0.611-0.265,0.883-0.378
					C52.242,35.658,52.871,35.458,53.518,35.357z"/>
			</g>
			<g>
				<path fill-rule="evenodd" clip-rule="evenodd" fill="#4E4E4E" d="M71.902,43.999c0.303,0.622,0.674,1,1.365,1.153
					c0.232,0.052,0.484,0.099,0.725,0.168c0.08-0.063,0.221-0.126,0.443-0.188c0.32-0.092,0.73,0.199,0.961-0.146
					c0.193-0.331,0.107-0.521-0.26-0.568c-0.563-0.044-1.012,0.032-1.596-0.134c-1.018-0.288-1.383-1.154-1.809-2.025
					C71.721,42.846,71.633,43.442,71.902,43.999z"/>
			</g>
			<g>
				<g>
					<path fill-rule="evenodd" clip-rule="evenodd" fill="#4E4E4E" d="M85.225,52.888c0.014,0.109,0.035,0.217-0.057,0.204
						c-0.059-0.174-0.115-0.318-0.146-0.497C85.1,52.691,85.166,52.791,85.225,52.888c0-0.008-0.002-0.013-0.002-0.02
						c-0.461-0.858-0.803-1.793-1.41-2.566c-0.396-0.486-0.932-0.859-0.977-1.471c-0.217-0.697-0.779-1.019-1.465-1.133
						c-0.691-0.042-1.053-0.533-1.656-0.835c-0.744-0.374-1.084-0.746-1.971-0.861c-0.68-0.09-1.285-0.154-1.965-0.062
						c-0.336,0.042-1.568-0.135-1.824-0.398c-0.48-0.027-1.006-0.288-1.369-0.521c-0.516-0.332-0.717-0.869-0.893-1.434
						c-0.137-0.44-0.277-1.199-0.189-1.776c-0.102-0.188-0.211-0.37-0.336-0.542c-0.4-0.422-0.703-1.336-1.328-1.458
						c-0.504-0.101-1.008,0.06-1.516,0.076c-0.912,1.033-0.859,2.324-0.275,3.51c-0.445,0.021-1.561-0.202-1.932-0.432
						c-0.818-0.51-0.898-0.241-1.689-0.375c-0.395-0.062-0.881-0.582-1.326-0.335c-0.535,0.298-0.721,0.144-1.262-0.104
						c-0.299-0.022-1.59-0.082-1.799,0.055c-0.609,0.401-1.074,0.022-1.785,0.284c-0.836-0.122-1.949,0.604-2.742,0.276
						c0.17-0.53,0.482-1.004,0.563-1.566c0.014,0,0.025,0,0.037,0c0.189-0.768,0.285-1.551,0.494-2.316
						c0.213-0.795,0.352-1.705-0.059-2.462c-0.33-0.607-0.945-0.877-1.613-0.92c-0.678-0.044-1.627,0.067-2.262,0.314
						c-0.625,0.246-1.342,0.417-1.914,0.766c-0.24,0.144-0.535,0.208-0.814,0.295c-1.473,1.01-3.16,1.401-4.123,3.119
						c-0.996,1.774-2.184,3.33-0.535,5.196c0.24,0.273,0.57,0.398,0.807,0.64c-0.227,0.411-0.359,0.867-0.498,1.312
						c-0.24,0.781-1.104,1.542-1.182,2.236c-0.326,0.705,0.273,1.419,0.57,2.061c0.305,0.666,0.348,1.612,0.412,2.339
						c-2.318-0.682-3.154,0.577-3.594,2.621c-0.43,1.993,0.354,4.013,1.322,5.729c1.107,1.97,2.732,3.315,4.045,5.096
						c0.654,0.889,1.307,1.714,2.084,2.502c0.76,0.506,0.588,1.255,1.025,2.01c0.49,0.847,0.859,1.87,0.951,2.854
						c0.025,0.247,0.031,0.608,0.371,0.487c0.303-0.309,0.162-0.601,0.174-1.02c0.02-0.603,0.09-1.868,0.971-1.801
						c0.783,0.06,1.924,0.654,2.461,1.22c0.24,0.252,1.678,2.066,1.957,1.774c0.35-0.232-1.01-1.796-1.148-2.003
						c-0.568-0.846-2.918-3.623-0.236-3.399c-0.264,0.697,0.563,0.761,0.887,0.203c0.322-0.559-0.146-0.939-0.619-1.122
						c-1.354-0.524-1.748-1.25-2.389-2.395c-0.063-0.007-0.113-0.015-0.129-0.016c-0.352-0.052-0.703-0.078-1.049-0.169
						c-0.34-0.088-0.674-0.224-1.029-0.233c-0.52-0.015-0.969-0.316-1.479-0.427c-0.264-0.059-0.506-0.133-0.758-0.231
						c-0.465-0.179-0.906-0.412-1.328-0.668c-0.854-0.514-1.631-1.138-2.398-1.771c-0.35-0.287-0.74-0.52-1.088-0.816
						c-0.377-0.324-0.912-0.694-1.107-1.18c0.184,0.149,0.385,0.303,0.576,0.455c0.174,0.136,0.305,0.295,0.502,0.41
						c0.365,0.211,0.684,0.523,1.043,0.75c0.477,0.3,0.857,0.747,1.383,0.975c0.41,0.178,0.813,0.497,1.201,0.738
						c0.779,0.49,1.549,0.723,2.404,1.042c0.441,0.163,0.889,0.29,1.346,0.414c0.461,0.124,0.939,0.132,1.398,0.252
						c0.152,0.04,0.457,0.126,0.68,0.23c0.898,0.215,1.332,0.165,2.135-0.579c0.621-0.571,0.938-1.346,0.938-2.183
						c-0.002-1.964-1.289-2.382-2.037-3.933c1.672,0.829,3.574,0.808,5.402,0.781c0.479-0.008,2.078-0.331,2.354,0.165
						c0.213,0.383-1.508,2.405-1.635,3.06c-0.453,2.17,2.283,2.508,3.842,2.811c0.959,0.187,1.91-0.031,2.83,0.298
						c0.568,0.202,1.859,0.713,1.785,1.427c-0.076,0.737,0.826-0.015,0.363-0.732c-0.371-0.581-1.49-1.25-0.83-2.062
						c0.609-0.747,1.896-0.401,2.658-0.898c0.84-0.498-0.791-0.316-0.803-0.316c-0.584,0.027-2.113,0.119-2.016-0.822
						c0.047-0.449,0.842-1.937,0.096-2.122c-0.275,0.188-0.957,1.962-1.371,0.669c-0.104-0.316-0.098-0.907-0.396-1.098
						c-0.117,0.148-0.246,0.287-0.348,0.454c-0.221,0.357-0.453,0.709-0.77,0.988c-0.426,0.377-1.045,0.883-1.014,1.524
						c0.014,0.196,0.215,0.358,0.223,0.551c-0.131,0.024-0.199-0.135-0.25-0.234c-0.209-0.405,0.059-0.934,0.299-1.262
						c0.346-0.478,0.768-0.911,1.131-1.383c0.133-0.172,0.293-0.457,0.479-0.699c-0.033,0.002-0.066,0.006-0.105,0.015
						c0.057-0.012,0.117-0.052,0.176-0.105c0.045-0.052,0.088-0.099,0.133-0.141c0.277-0.329,0.59-0.888,0.898-1.023
						c0.695-0.297,1.492-0.035,2.203,0.046c2.381,0.274,4.73-0.233,7.076-0.55c1.307-0.178,2.527-0.24,3.762-0.741
						C82.938,57.421,86.768,55.393,85.225,52.888z M78.553,56.349c-0.455,0-0.822-0.366-0.822-0.818
						c0-0.454,0.367-0.822,0.822-0.822c0.449-0.001,0.82,0.366,0.82,0.821C79.373,55.981,79.004,56.349,78.553,56.349z"/>
				</g>
			</g>
			<g>
				<path fill-rule="evenodd" clip-rule="evenodd" fill="#4E4E4E" d="M56.787,36.653c0.061,0.166,0.096,0.343,0.115,0.521
					c0.037-0.314,0.129-0.583,0.348-0.739c0.318-0.23,1.295-0.446,0.805-1.019c-0.293-0.344-0.721,0.105-1.035,0.224
					c-0.422,0.162-0.721,0.155-1,0.093c0.115,0.074,0.225,0.153,0.326,0.245C56.561,36.172,56.701,36.403,56.787,36.653z"/>
			</g>
			<g>
				<path fill-rule="evenodd" clip-rule="evenodd" fill="#4E4E4E" d="M56.121,41.198c0.492-0.016,0.984-0.028,1.475-0.042
					c0.578,0.429,0.986-0.507,0.406-0.809c-0.559-0.291-1.352-0.219-1.398-0.753c-0.023,0.058-0.047,0.114-0.072,0.183
					C56.357,40.238,56.248,40.72,56.121,41.198z"/>
			</g>
		</g>
	</g>
	<g>
		<path fill="#010202" d="M44.811,90.699H40.75l-1.395,3.527h-0.772l4.02-10.035h0.444l3.938,10.035h-0.786L44.811,90.699z
			 M41.003,90.07h3.575l-1.36-3.603c-0.114-0.282-0.251-0.675-0.41-1.176c-0.123,0.438-0.258,0.834-0.403,1.189L41.003,90.07z"/>
		<path fill="#010202" d="M53.63,94.227v-4.819c0-0.747-0.157-1.291-0.472-1.63c-0.314-0.34-0.802-0.51-1.463-0.51
			c-0.889,0-1.539,0.225-1.952,0.674c-0.412,0.448-0.618,1.177-0.618,2.184v4.102h-0.677v-7.431h0.574l0.13,1.019h0.041
			c0.483-0.774,1.342-1.162,2.577-1.162c1.687,0,2.529,0.904,2.529,2.714v4.86H53.63z"/>
		<path fill="#010202" d="M59.422,87.384h-1.75v6.843h-0.677v-6.843h-1.381v-0.396l1.381-0.253V86.16
			c0-0.911,0.167-1.58,0.502-2.006c0.335-0.427,0.884-0.64,1.645-0.64c0.41,0,0.82,0.062,1.23,0.185l-0.157,0.588
			c-0.364-0.114-0.727-0.171-1.087-0.171c-0.528,0-0.903,0.156-1.125,0.469c-0.221,0.312-0.331,0.818-0.331,1.521v0.69h1.75V87.384z
			 M60.762,84.731c0-0.438,0.144-0.656,0.431-0.656c0.142,0,0.252,0.057,0.331,0.171c0.08,0.114,0.12,0.275,0.12,0.485
			c0,0.205-0.04,0.367-0.12,0.485c-0.079,0.118-0.189,0.178-0.331,0.178C60.905,85.395,60.762,85.174,60.762,84.731z M61.534,94.227
			h-0.677v-7.431h0.677V94.227z"/>
		<path fill="#010202" d="M67.068,86.652c1.039,0,1.821,0.327,2.348,0.981c0.526,0.653,0.79,1.609,0.79,2.867
			c0,1.235-0.277,2.188-0.831,2.857s-1.331,1.005-2.334,1.005c-0.528,0-1.005-0.109-1.429-0.328s-0.759-0.528-1.005-0.93h-0.062
			l-0.191,1.121h-0.424V83.59h0.677v2.673c0,0.401-0.009,0.771-0.027,1.107l-0.021,0.581h0.048c0.282-0.446,0.623-0.774,1.021-0.984
			C66.028,86.757,66.508,86.652,67.068,86.652z M67.055,87.268c-0.875,0-1.502,0.251-1.88,0.752s-0.567,1.328-0.567,2.481v0.116
			c0,1.121,0.197,1.926,0.591,2.413c0.395,0.487,1.009,0.731,1.843,0.731c0.812,0,1.422-0.283,1.832-0.851s0.615-1.376,0.615-2.424
			C69.488,88.341,68.677,87.268,67.055,87.268z"/>
		<path fill="#010202" d="M72.1,84.731c0-0.438,0.144-0.656,0.431-0.656c0.142,0,0.252,0.057,0.331,0.171
			c0.08,0.114,0.12,0.275,0.12,0.485c0,0.205-0.04,0.367-0.12,0.485c-0.079,0.118-0.189,0.178-0.331,0.178
			C72.243,85.395,72.1,85.174,72.1,84.731z M72.872,94.227h-0.677v-7.431h0.677V94.227z"/>
		<path fill="#010202" d="M81.422,90.501c0,1.212-0.294,2.159-0.882,2.841c-0.588,0.681-1.399,1.021-2.434,1.021
			c-0.651,0-1.226-0.157-1.723-0.472s-0.877-0.766-1.142-1.354s-0.396-1.267-0.396-2.037c0-1.212,0.294-2.156,0.882-2.833
			s1.395-1.016,2.42-1.016c1.021,0,1.821,0.343,2.402,1.029C81.131,88.367,81.422,89.307,81.422,90.501z M75.557,90.501
			c0,1.021,0.225,1.817,0.673,2.39c0.449,0.571,1.084,0.857,1.904,0.857s1.455-0.286,1.903-0.857
			c0.449-0.572,0.674-1.369,0.674-2.39c0-1.025-0.227-1.82-0.681-2.386c-0.453-0.565-1.09-0.848-1.91-0.848
			s-1.453,0.281-1.897,0.845C75.778,88.675,75.557,89.471,75.557,90.501z"/>
		<path fill="#010202" d="M88.013,92.292c0,0.665-0.253,1.177-0.759,1.535c-0.506,0.357-1.224,0.536-2.153,0.536
			c-0.993,0-1.782-0.152-2.365-0.458v-0.731c0.747,0.374,1.536,0.561,2.365,0.561c0.733,0,1.291-0.122,1.671-0.365
			c0.381-0.244,0.571-0.569,0.571-0.975c0-0.374-0.151-0.688-0.455-0.943c-0.303-0.255-0.801-0.506-1.493-0.752
			c-0.743-0.269-1.265-0.5-1.565-0.693c-0.301-0.194-0.527-0.413-0.681-0.656c-0.152-0.244-0.229-0.542-0.229-0.893
			c0-0.556,0.233-0.996,0.7-1.319c0.468-0.323,1.12-0.485,1.959-0.485c0.802,0,1.563,0.15,2.283,0.451l-0.253,0.615
			c-0.729-0.301-1.406-0.451-2.03-0.451c-0.606,0-1.087,0.101-1.442,0.301s-0.533,0.479-0.533,0.834c0,0.388,0.138,0.697,0.413,0.93
			c0.276,0.232,0.815,0.492,1.617,0.779c0.67,0.241,1.157,0.459,1.463,0.653c0.306,0.193,0.534,0.413,0.687,0.659
			C87.937,91.67,88.013,91.959,88.013,92.292z"/>
	</g>
</g>
<g id="Grabar_-_Gris_1_">
</g>
<g id="Grabar_-_Gris">
</g>
</svg>
