<?xml version="1.0" encoding="utf-8"?>
<!-- Generator: Adobe Illustrator 16.0.0, SVG Export Plug-In . SVG Version: 6.00 Build 0)  -->
<!DOCTYPE svg PUBLIC "-//W3C//DTD SVG 1.1//EN" "http://www.w3.org/Graphics/SVG/1.1/DTD/svg11.dtd">
<svg version="1.1" id="Capa_1" xmlns="http://www.w3.org/2000/svg" xmlns:xlink="http://www.w3.org/1999/xlink" x="0px" y="0px"
	 width="126px" height="126px" viewBox="0 0 126 126" enable-background="new 0 0 126 126" xml:space="preserve">
<g>
	<path fill="#4E4E4E" d="M56.66,54.478c0.002-0.029,0.242-0.192,0.52-0.379c0.521-0.347,0.959-0.818,1.383-1.305
		c-0.475-0.028-0.932,0.054-1.279-0.104c-1.422-0.644-2.85-1.288-4.195-2.075c-1.754-1.018-3.686-1.499-5.594-2.063
		c-1.904-0.564-3.775-1.084-5.387-2.423c-2.752-2.289-5.656-4.396-8.516-6.552c-0.182-0.138-0.541-0.032-0.816-0.039
		c0.125,0.266,0.186,0.618,0.396,0.775c0.283,0.216,0.742,0.203,1.014,0.425c1.182,0.975,2.316,2.007,3.482,3.004
		c1,0.853,1.982,1.732,3.047,2.497c0.441,0.317,0.988,0.426,0.666,1.142c0.404-0.021,0.725-0.036,1.045-0.053
		c-0.178,0.249-0.455,0.263-0.527,0.392c-0.598,1.034-1.438,0.624-2.256,0.433c-0.473-0.108-0.951-0.21-1.432-0.259
		c-0.229-0.023-0.473,0.089-0.707,0.141c0.002,0.097,0.002,0.194,0.004,0.292c0.455,0.08,0.91,0.159,1.367,0.239
		c0.605,0.105,0.805,0.503,0.529,0.996c-0.639,1.132-1.264,2.249-1.074,3.623c0.041,0.277,0.029,0.563,0.041,0.845
		c0.287-0.088,0.598-0.132,0.855-0.275c0.236-0.131,0.406-0.377,0.619-0.556c0.26-0.219,0.531-0.42,0.799-0.63
		c0.066,0.065,0.133,0.131,0.197,0.198c-0.18,0.262-0.344,0.538-0.543,0.789c-1.805,2.245-3.592,4.506-5.436,6.72
		c-0.629,0.757-1.414,1.38-2.107,2.086c-0.154,0.159-0.311,0.404-0.307,0.607c0,0.15,0.254,0.421,0.396,0.419
		c0.213,0,0.479-0.145,0.623-0.314c0.236-0.272,0.352-0.657,0.594-0.922c1.938-2.125,3.93-4.197,5.82-6.362
		c0.973-1.12,1.863-2.011,3.34-0.821c0.021,0.018,0.055,0.016,0.084,0.022c2.52,0.728,4.809,1.938,6.949,3.425
		c2.707,1.881,5.381,3.808,8.063,5.722c0.572,0.407,1.129,0.84,1.689,1.262c-1.137-1.966-1.783-4.26-2.34-6.419
		C57.285,57.5,56.623,56.035,56.66,54.478z"/>
	<path fill="#4E4E4E" d="M80.359,74.398c1.402,0.001,2.803,0.042,4.199-0.029c1.539-0.078,1.781-0.637,0.988-1.971
		c-0.113-0.195-0.27-0.367-0.428-0.531c-0.275-0.289-0.557-0.575-0.832-0.857C83.686,72.363,81.945,73.558,80.359,74.398z"/>
	<path fill="#4E4E4E" d="M85.848,61.883c0.031-0.328-0.188-0.673-0.266-1.02c-0.275-1.203-0.342-2.5-0.857-3.591
		c-1.029-2.192-2.826-4.732-4.67-6.313c-1.045-0.893-2.734-1.647-4.051-2.097c-3.121-1.065-6.289-0.644-9.41,0.073
		c-2.119,0.489-4.129,1.293-5.816,2.733c-0.018,0.017-0.033,0.03-0.051,0.043c-0.594,1.431-3.711,2.788-3.512,3.124
		c0.609,1.016,0.512,1.987,0.729,3.089c0.549,2.795,1.766,5.726,3.227,8.176c0.047,0.079,0.096,0.16,0.148,0.237
		c0.248,0.166,0.498,0.335,0.752,0.486c0.717,0.425,1.15,0.933,1.447,1.649c1.184,2.878,3.086,5.063,6.109,6.074
		c1.262,0.422,2.582,0.985,3.865,0.959c1.494-0.032,2.979-0.474,4.465-0.801c0.107-0.054,0.215-0.104,0.322-0.16
		c1.994-1.042,3.902-2.953,5.416-4.729c0.414-0.83,0.824-1.62,1.188-2.428C85.67,65.642,85.672,63.743,85.848,61.883z"/>
	<path fill="#4E4E4E" d="M70.016,54.535c0.014-0.002,0.025-0.005,0.039-0.005l-0.018-0.013
		C70.029,54.524,70.021,54.53,70.016,54.535z"/>
	<g>
		<path fill="#010202" d="M39.771,94.228l-3.726-9.229h-0.055c0.037,0.565,0.055,1.144,0.055,1.736v7.492h-0.67v-9.994h1.08
			l3.541,8.791h0.041l3.541-8.791h1.053v9.994h-0.704v-7.574c0-0.528,0.027-1.075,0.082-1.641h-0.055l-3.739,9.215H39.771z"/>
		<path fill="#010202" d="M53.369,90.502c0,1.212-0.294,2.159-0.882,2.841c-0.588,0.681-1.399,1.021-2.434,1.021
			c-0.652,0-1.226-0.157-1.723-0.472s-0.877-0.766-1.142-1.354s-0.396-1.267-0.396-2.037c0-1.212,0.294-2.156,0.882-2.833
			s1.395-1.016,2.42-1.016c1.021,0,1.822,0.343,2.403,1.029C53.079,88.368,53.369,89.308,53.369,90.502z M47.504,90.502
			c0,1.021,0.225,1.817,0.673,2.39c0.449,0.571,1.083,0.857,1.904,0.857s1.455-0.286,1.904-0.857
			c0.449-0.572,0.673-1.369,0.673-2.39c0-1.025-0.227-1.82-0.68-2.386s-1.09-0.848-1.911-0.848s-1.453,0.281-1.897,0.845
			C47.726,88.676,47.504,89.472,47.504,90.502z"/>
		<path fill="#010202" d="M56.043,94.228h-0.677V83.591h0.677V94.228z"/>
		<path fill="#010202" d="M59.02,86.797v4.813c0,0.747,0.157,1.291,0.472,1.631c0.314,0.339,0.802,0.509,1.463,0.509
			c0.884,0,1.535-0.224,1.952-0.67s0.625-1.174,0.625-2.181v-4.102h0.67v7.431h-0.574l-0.123-1.025h-0.041
			c-0.483,0.774-1.342,1.162-2.577,1.162c-1.691,0-2.536-0.904-2.536-2.714v-4.854H59.02z"/>
		<path fill="#010202" d="M71.188,92.293c0,0.665-0.254,1.177-0.76,1.535c-0.506,0.357-1.223,0.536-2.152,0.536
			c-0.994,0-1.782-0.152-2.366-0.458v-0.731c0.748,0.374,1.536,0.561,2.366,0.561c0.732,0,1.291-0.122,1.67-0.365
			c0.381-0.244,0.572-0.569,0.572-0.975c0-0.374-0.152-0.688-0.455-0.943s-0.801-0.506-1.494-0.752
			c-0.742-0.269-1.264-0.5-1.564-0.693c-0.301-0.194-0.528-0.413-0.681-0.656c-0.153-0.244-0.229-0.542-0.229-0.893
			c0-0.556,0.233-0.996,0.701-1.319c0.467-0.323,1.119-0.485,1.959-0.485c0.801,0,1.563,0.15,2.283,0.451l-0.254,0.615
			c-0.729-0.301-1.406-0.451-2.029-0.451c-0.607,0-1.088,0.101-1.443,0.301s-0.533,0.479-0.533,0.834
			c0,0.388,0.139,0.697,0.414,0.93s0.814,0.492,1.617,0.779c0.67,0.241,1.156,0.459,1.463,0.653
			c0.305,0.193,0.533,0.413,0.686,0.659C71.112,91.671,71.188,91.96,71.188,92.293z"/>
		<path fill="#010202" d="M76.068,94.364c-1.062,0-1.894-0.335-2.495-1.005s-0.902-1.604-0.902-2.803
			c0-1.23,0.313-2.188,0.937-2.874c0.624-0.687,1.479-1.029,2.563-1.029c0.643,0,1.258,0.111,1.846,0.335l-0.185,0.602
			c-0.643-0.214-1.201-0.321-1.675-0.321c-0.911,0-1.602,0.281-2.071,0.845c-0.47,0.563-0.704,1.372-0.704,2.43
			c0,1.003,0.234,1.788,0.704,2.355s1.126,0.851,1.969,0.851c0.675,0,1.301-0.121,1.88-0.362v0.629
			C77.461,94.248,76.839,94.364,76.068,94.364z"/>
		<path fill="#010202" d="M85.654,90.502c0,1.212-0.294,2.159-0.882,2.841c-0.588,0.681-1.399,1.021-2.434,1.021
			c-0.651,0-1.226-0.157-1.723-0.472s-0.877-0.766-1.142-1.354s-0.396-1.267-0.396-2.037c0-1.212,0.294-2.156,0.882-2.833
			s1.395-1.016,2.42-1.016c1.021,0,1.821,0.343,2.402,1.029C85.363,88.368,85.654,89.308,85.654,90.502z M79.789,90.502
			c0,1.021,0.225,1.817,0.673,2.39c0.449,0.571,1.084,0.857,1.904,0.857s1.455-0.286,1.903-0.857
			c0.449-0.572,0.674-1.369,0.674-2.39c0-1.025-0.227-1.82-0.681-2.386c-0.453-0.565-1.09-0.848-1.91-0.848
			s-1.453,0.281-1.897,0.845C80.011,88.676,79.789,89.472,79.789,90.502z"/>
		<path fill="#010202" d="M92.245,92.293c0,0.665-0.253,1.177-0.759,1.535c-0.506,0.357-1.224,0.536-2.153,0.536
			c-0.993,0-1.782-0.152-2.365-0.458v-0.731c0.747,0.374,1.536,0.561,2.365,0.561c0.733,0,1.291-0.122,1.671-0.365
			c0.381-0.244,0.571-0.569,0.571-0.975c0-0.374-0.151-0.688-0.455-0.943c-0.303-0.255-0.801-0.506-1.493-0.752
			c-0.743-0.269-1.265-0.5-1.565-0.693c-0.301-0.194-0.527-0.413-0.681-0.656c-0.152-0.244-0.229-0.542-0.229-0.893
			c0-0.556,0.233-0.996,0.7-1.319c0.468-0.323,1.12-0.485,1.959-0.485c0.802,0,1.563,0.15,2.283,0.451l-0.253,0.615
			c-0.729-0.301-1.406-0.451-2.03-0.451c-0.606,0-1.087,0.101-1.442,0.301s-0.533,0.479-0.533,0.834c0,0.388,0.138,0.697,0.413,0.93
			c0.276,0.232,0.815,0.492,1.617,0.779c0.67,0.241,1.157,0.459,1.463,0.653c0.306,0.193,0.534,0.413,0.687,0.659
			C92.169,91.671,92.245,91.96,92.245,92.293z"/>
	</g>
</g>
<g id="Grabar_-_Gris_1_">
</g>
<g id="Grabar_-_Gris">
</g>
</svg>
