<?xml version="1.0" encoding="UTF-8" standalone="no"?>
<!-- Creator: CorelDRAW X8 -->

<svg
   xmlns:dc="http://purl.org/dc/elements/1.1/"
   xmlns:cc="http://creativecommons.org/ns#"
   xmlns:rdf="http://www.w3.org/1999/02/22-rdf-syntax-ns#"
   xmlns:svg="http://www.w3.org/2000/svg"
   xmlns="http://www.w3.org/2000/svg"
   xmlns:sodipodi="http://sodipodi.sourceforge.net/DTD/sodipodi-0.dtd"
   xmlns:inkscape="http://www.inkscape.org/namespaces/inkscape"
   xml:space="preserve"
   width="14.1111mm"
   height="14.1112mm"
   version="1.1"
   style="shape-rendering:geometricPrecision; text-rendering:geometricPrecision; image-rendering:optimizeQuality; fill-rule:evenodd; clip-rule:evenodd"
   viewBox="0 0 32 32"
   id="svg2"
   inkscape:version="0.91 r13725"
   sodipodi:docname="catalogo.svg"><metadata
     id="metadata18"><rdf:RDF><cc:Work
         rdf:about=""><dc:format>image/svg+xml</dc:format><dc:type
           rdf:resource="http://purl.org/dc/dcmitype/StillImage" /></cc:Work></rdf:RDF></metadata><sodipodi:namedview
     pagecolor="#ffffff"
     bordercolor="#666666"
     borderopacity="1"
     objecttolerance="10"
     gridtolerance="10"
     guidetolerance="10"
     inkscape:pageopacity="0"
     inkscape:pageshadow="2"
     inkscape:window-width="1140"
     inkscape:window-height="642"
     id="namedview16"
     showgrid="false"
     inkscape:zoom="6.6750458"
     inkscape:cx="24.552424"
     inkscape:cy="24.375208"
     inkscape:window-x="10"
     inkscape:window-y="34"
     inkscape:window-maximized="0"
     inkscape:current-layer="svg2" /><defs
     id="defs4"><style
       type="text/css"
       id="style6"><![CDATA[
    .fil0 {fill:#4B5353;fill-rule:nonzero}
   ]]></style></defs><path
     inkscape:connector-curvature="0"
     style="fill:#4b5353;fill-rule:nonzero;stroke:none"
     id="path10"
     d="m 32,4 c 0,3 -2,4 -4,4 -2,0 -4,-1 -4,-4 0,-2 2,-4 4,-4 2,0 4,2 4,4 z"
     class="fil0" /><path
     inkscape:connector-curvature="0"
     style="fill:#4b5353;fill-rule:nonzero;stroke:none"
     id="path12"
     d="m 16,8 c 4,0 8,4 8,8 0,4 -4,8 -8,8 -2,0 -4,2 -4,4 0,2 2,4 4,4 2,0 4,-2 4,-4 0,-4 4,-8 8,-8 l 0,0 c 2,0 4,-2 4,-4 0,-2 -2,-4 -4,-4 l 0,0 C 24,12 20,8 20,4 20,2 18,0 16,0 c -2,0 -4,2 -4,4 0,3 2,4 4,4 z"
     class="fil0" /><path
     inkscape:connector-curvature="0"
     style="fill:#4b5353;fill-rule:nonzero;stroke:none"
     id="path14"
     d="m 16,24 c -4,0 -8,-4 -8,-8 0,-4 4,-8 8,-8 2,0 4,-1 4,-4 0,-2 -2,-4 -4,-4 -2,0 -4,2 -4,4 0,4 -4,8 -8,8 -2,0 -4,2 -4,4 0,2 2,4 4,4 4,0 8,4 8,8 0,2 2,4 4,4 2,0 4,-2 4,-4 0,-2 -2,-4 -4,-4 z"
     class="fil0" /></svg>