<svg id="Capa_1" data-name="Capa 1" xmlns="http://www.w3.org/2000/svg" viewBox="0 0 300 57"><defs><style>.cls-1{fill:#fff;}</style></defs><title>SiB-Footer</title><path class="cls-1" d="M6.73,21.82A69.79,69.79,0,0,0,26,54.25,66.7,66.7,0,0,0,55.29,38.53a4.63,4.63,0,0,1-.5-0.49h0a8.37,8.37,0,0,0-5.05-2.26c-3.55-.24-8.17,5-8.17,5h0a14.79,14.79,0,1,1,2-16h0s3.21,6.65,6.67,7.28a8.67,8.67,0,0,0,5.53-1h0a4.58,4.58,0,0,1,1.15-.54,70.18,70.18,0,0,0-17-27.87A73.18,73.18,0,0,0,6.73,21.82ZM41.22,9.65a3.57,3.57,0,1,1-3.57-3.57A3.57,3.57,0,0,1,41.22,9.65Z"/><path class="cls-1" d="M54.1,18.28q0.63,2.34,1.11,4.72,1.38,3.07,2.45,6.24,1-2.29,1.81-4.63A62.55,62.55,0,0,0,54.1,18.28Z"/><path class="cls-1" d="M33.36,3.54Q31,2.42,28.56,1.5a69.42,69.42,0,0,0-6.39,5.71q2.69-.75,5.43-1.31Q30.44,4.59,33.36,3.54Z"/><path class="cls-1" d="M32.25,53.65q2.38,1,4.82,1.85a63.68,63.68,0,0,0,6.66-5.84q-2.37.71-4.79,1.26A67.26,67.26,0,0,1,32.25,53.65Z"/><path class="cls-1" d="M7.56,28.21q-1.13,2.45-2.07,5a70.3,70.3,0,0,0,6.12,6.66q-0.84-2.71-1.47-5.5C9.19,32.33,8.32,30.28,7.56,28.21Z"/><path class="cls-1" d="M17.61,51.12q2,0.2,4,.27a69.54,69.54,0,0,1-9-12.43A64.79,64.79,0,0,0,17.61,51.12Z"/><path class="cls-1" d="M55.06,43.79q0.21-1.85.31-3.72a67.67,67.67,0,0,1-11.69,8.41A64.13,64.13,0,0,0,55.06,43.79Z"/><path class="cls-1" d="M9.72,13.25q-0.16,2.16-.18,4.35A74.75,74.75,0,0,1,23.12,8.16,71.64,71.64,0,0,0,9.72,13.25Z"/><path class="cls-1" d="M48.18,5.8q-2-.17-4.1-0.22A72.45,72.45,0,0,1,52.95,18.4,70.6,70.6,0,0,0,48.18,5.8Z"/><circle class="cls-1" cx="30.23" cy="31.32" r="7.39" transform="translate(-2.76 2.93) rotate(-5.3)"/><circle class="cls-1" cx="58.25" cy="35.01" r="2.3" transform="translate(-2.98 5.53) rotate(-5.3)"/><circle class="cls-1" cx="37.65" cy="9.65" r="1.78"/><path class="cls-1" d="M73.38,21.31c-3.84-1.76-5.39-2.78-5.39-5,0-1.76,1.43-3.47,4.62-3.47a12.1,12.1,0,0,1,5.6,1.35l1.27-4.94a15.2,15.2,0,0,0-6.74-1.43c-6.78,0-10.83,4-10.83,9.11,0,4.09,2.94,7,7.68,9.07,3.47,1.51,5,2.86,5,5.11S72.81,35,69.46,35a14.09,14.09,0,0,1-6.78-1.76v0a4.59,4.59,0,0,1-1.09,5.08,17,17,0,0,0,7.63,1.7c7.31,0,11.44-4,11.44-9.48C80.66,26.46,78.41,23.56,73.38,21.31Z"/><path class="cls-1" d="M85.88,7.46a3.11,3.11,0,0,0-3.23,3.23,3.25,3.25,0,0,0,6.5,0A3.1,3.1,0,0,0,85.88,7.46Z"/><rect class="cls-1" x="82.9" y="16.9" width="6.05" height="22.75"/><path class="cls-1" d="M107.33,22.86V22.7a7.18,7.18,0,0,0,5-6.78A7,7,0,0,0,109.29,10c-2.17-1.51-4.86-2-8.66-2a44.78,44.78,0,0,0-8,.65V39.53a49.39,49.39,0,0,0,6.7.41c5.6,0,9.11-1,11.23-2.94a8.63,8.63,0,0,0,2.86-6.45A7.75,7.75,0,0,0,107.33,22.86ZM98.67,12.69a12.44,12.44,0,0,1,2.66-.2c2.7,0,5,1,5,4.13,0,2.57-2,4.41-5.47,4.41H98.67V12.69Zm2.41,22.71a12.53,12.53,0,0,1-2.41-.16v-9.8h2.25c3.1,0,6.21,1.31,6.21,4.94S104.35,35.4,101.08,35.4Z"/><path class="cls-1" d="M125.48,18.7a3.75,3.75,0,0,1-.89,2.6,2.91,2.91,0,0,1-2.27,1,5.83,5.83,0,0,1-2.51-.46V20.9a4.25,4.25,0,0,0,1.15.41,6.28,6.28,0,0,0,1.36.15A2.06,2.06,0,0,0,124,20.7a2.88,2.88,0,0,0,.64-1.93,2.88,2.88,0,0,0-.46-1.71,4.69,4.69,0,0,0-1.74-1.27,6.37,6.37,0,0,1-1.51-1,3,3,0,0,1-.74-1.11,4.27,4.27,0,0,1-.24-1.52,3.64,3.64,0,0,1,.39-1.71,2.88,2.88,0,0,1,1.1-1.17A3,3,0,0,1,123,8.88a5.25,5.25,0,0,1,1.38.17,4.64,4.64,0,0,1,1,.37l-0.34.84a4.37,4.37,0,0,0-2-.51,2,2,0,0,0-1.56.65,2.46,2.46,0,0,0-.6,1.74,2.88,2.88,0,0,0,.44,1.7,4.83,4.83,0,0,0,1.71,1.26,5,5,0,0,1,1.93,1.51A3.54,3.54,0,0,1,125.48,18.7Z"/><path class="cls-1" d="M127.43,9.75a1,1,0,0,1,.16-0.62A0.51,0.51,0,0,1,128,8.9a0.44,0.44,0,0,1,.38.22,1.16,1.16,0,0,1,.14.62,1.15,1.15,0,0,1-.14.61,0.44,0.44,0,0,1-.38.23,0.51,0.51,0,0,1-.43-0.23A1,1,0,0,1,127.43,9.75Zm1,12.37h-0.85V12.43h0.85v9.68Z"/><path class="cls-1" d="M134.8,19.69a2.71,2.71,0,0,1-.64,1.92,2.41,2.41,0,0,1-1.86.69,3.61,3.61,0,0,1-1.16-.17,2.86,2.86,0,0,1-.78-0.37v-1a2.34,2.34,0,0,0,.87.53,3.13,3.13,0,0,0,1.12.2,1.48,1.48,0,0,0,1.18-.49,1.92,1.92,0,0,0,.43-1.31,1.86,1.86,0,0,0-.31-1.08,4.33,4.33,0,0,0-1.18-1,8,8,0,0,1-1.35-1,2.8,2.8,0,0,1-.56-0.84,2.72,2.72,0,0,1-.2-1.11,2.29,2.29,0,0,1,.71-1.73,2.46,2.46,0,0,1,1.79-.68,3.31,3.31,0,0,1,2,.55l-0.44.74a2.74,2.74,0,0,0-1.55-.49,1.64,1.64,0,0,0-1.2.44,1.57,1.57,0,0,0-.45,1.17,1.83,1.83,0,0,0,.3,1.08,4.65,4.65,0,0,0,1.29,1,8.17,8.17,0,0,1,1.32,1,2.53,2.53,0,0,1,.53.84A2.93,2.93,0,0,1,134.8,19.69Z"/><path class="cls-1" d="M138.53,21.51a2.09,2.09,0,0,0,.7-0.11v0.71a2.45,2.45,0,0,1-1,.18q-1.5,0-1.5-2.24V13.18h-0.87v-0.5l0.86-.25,0.28-2.3h0.59v2.3h1.54v0.75h-1.54v6.63a2.87,2.87,0,0,0,.21,1.34A0.8,0.8,0,0,0,138.53,21.51Z"/><path class="cls-1" d="M143.51,22.3A2.62,2.62,0,0,1,141.15,21a6.77,6.77,0,0,1-.83-3.64,7.81,7.81,0,0,1,.74-3.79,2.31,2.31,0,0,1,2.12-1.31,2.13,2.13,0,0,1,1.9,1.15,5.92,5.92,0,0,1,.7,3.09v0.79h-4.59a6.89,6.89,0,0,0,.6,3.17,1.89,1.89,0,0,0,1.76,1.05,3.78,3.78,0,0,0,1.92-.6v0.82A3.63,3.63,0,0,1,143.51,22.3ZM143.12,13q-1.75,0-1.92,3.49h3.72a5.6,5.6,0,0,0-.49-2.54A1.47,1.47,0,0,0,143.12,13Z"/><path class="cls-1" d="M156.15,22.12v-6.6q0-2.44-1.43-2.44a1.47,1.47,0,0,0-1.41.85,5.69,5.69,0,0,0-.43,2.51v5.67H152v-6.6a3.79,3.79,0,0,0-.35-1.84,1.17,1.17,0,0,0-1.08-.6,1.46,1.46,0,0,0-1.4.87,6.76,6.76,0,0,0-.44,2.84v5.32h-0.85V12.43h0.71l0.07,1.35h0.08a2,2,0,0,1,2-1.54,1.8,1.8,0,0,1,1.27.43,2.47,2.47,0,0,1,.67,1.25,2.92,2.92,0,0,1,.86-1.29,2.1,2.1,0,0,1,1.32-.39,1.73,1.73,0,0,1,1.61.84,5.42,5.42,0,0,1,.51,2.7v6.33h-0.84Z"/><path class="cls-1" d="M163.3,22.12l-0.11-1.36h0a2.25,2.25,0,0,1-2.11,1.54,1.81,1.81,0,0,1-1.52-.76,3.22,3.22,0,0,1-.58-2,2.92,2.92,0,0,1,.83-2.19,3.46,3.46,0,0,1,2.33-.88l1-.05v-0.8a4.34,4.34,0,0,0-.34-2A1.18,1.18,0,0,0,161.7,13a3.18,3.18,0,0,0-1.7.54l-0.37-.67a4,4,0,0,1,2.12-.62,2,2,0,0,1,1.72.76,4.55,4.55,0,0,1,.53,2.52v6.6h-0.7Zm-2.06-.54a1.57,1.57,0,0,0,1.42-.9,5.29,5.29,0,0,0,.5-2.54v-1l-1,.05a2.53,2.53,0,0,0-1.74.65,2.37,2.37,0,0,0-.57,1.71,2.55,2.55,0,0,0,.37,1.54A1.21,1.21,0,0,0,161.24,21.57Z"/><path class="cls-1" d="M172.35,22.3q-2.82,0-2.82-5a8,8,0,0,1,.71-3.75,2.29,2.29,0,0,1,3.32-.92,2.71,2.71,0,0,1,.93,1h0.07l0-1.08V8.23h0.85V22.12h-0.7l-0.07-1.36h-0.08a2.83,2.83,0,0,1-.9,1.14A2.12,2.12,0,0,1,172.35,22.3Zm0.05-.74a1.71,1.71,0,0,0,1.56-.94,5.55,5.55,0,0,0,.55-2.77V17.29a7.32,7.32,0,0,0-.53-3.22,1.72,1.72,0,0,0-1.62-1,1.55,1.55,0,0,0-1.5,1.09,8.56,8.56,0,0,0-.46,3.16,8.23,8.23,0,0,0,.47,3.17A1.58,1.58,0,0,0,172.41,21.56Z"/><path class="cls-1" d="M180.71,22.3A2.62,2.62,0,0,1,178.35,21a6.77,6.77,0,0,1-.83-3.64,7.81,7.81,0,0,1,.74-3.79,2.31,2.31,0,0,1,2.12-1.31,2.13,2.13,0,0,1,1.9,1.15,5.92,5.92,0,0,1,.7,3.09v0.79h-4.59a6.89,6.89,0,0,0,.6,3.17,1.89,1.89,0,0,0,1.76,1.05,3.78,3.78,0,0,0,1.92-.6v0.82A3.63,3.63,0,0,1,180.71,22.3ZM180.32,13q-1.75,0-1.92,3.49h3.72a5.6,5.6,0,0,0-.49-2.54A1.47,1.47,0,0,0,180.32,13Z"/><path class="cls-1" d="M188.69,22.12v-13h0.87v13h-0.87Z"/><path class="cls-1" d="M196.66,22.12V15.44q0-2.41-1.43-2.41a1.69,1.69,0,0,0-1.59.9,6.1,6.1,0,0,0-.51,2.86v5.32h-0.85V12.43H193l0.07,1.35h0.08a2.53,2.53,0,0,1,.87-1.13,2.09,2.09,0,0,1,1.22-.4,2,2,0,0,1,1.69.76,4.1,4.1,0,0,1,.56,2.42v6.69h-0.84Z"/><path class="cls-1" d="M202.53,13.18H201v8.93h-0.84V13.18h-1.23V12.7l1.23-.37V11.6a6,6,0,0,1,.44-2.66,1.58,1.58,0,0,1,1.52-.81,2.79,2.79,0,0,1,1.13.22L203,9.14a2,2,0,0,0-.86-0.22,0.82,0.82,0,0,0-.66.26,1.79,1.79,0,0,0-.33.84,9.33,9.33,0,0,0-.11,1.61v0.81h1.52v0.75Z"/><path class="cls-1" d="M209.55,17.25a7.42,7.42,0,0,1-.77,3.75,2.44,2.44,0,0,1-2.21,1.3A2.38,2.38,0,0,1,204.4,21a7.53,7.53,0,0,1-.76-3.75q0-5,3-5a2.41,2.41,0,0,1,2.17,1.31A7.3,7.3,0,0,1,209.55,17.25Zm-5,0a7.79,7.79,0,0,0,.5,3.17,1.64,1.64,0,0,0,1.56,1.07q2.08,0,2.08-4.24t-2.08-4.2A1.64,1.64,0,0,0,205,14.1,7.85,7.85,0,0,0,204.53,17.25Z"/><path class="cls-1" d="M214.37,12.25a2.78,2.78,0,0,1,.85.12l-0.21.85a1.7,1.7,0,0,0-.66-0.13,1.21,1.21,0,0,0-.92.51,3.61,3.61,0,0,0-.66,1.4,7.7,7.7,0,0,0-.24,2v5.13h-0.85V12.43h0.7l0.09,1.7h0.06Q213.21,12.25,214.37,12.25Z"/><path class="cls-1" d="M224.9,22.12v-6.6q0-2.44-1.43-2.44a1.47,1.47,0,0,0-1.41.85,5.69,5.69,0,0,0-.43,2.51v5.67h-0.84v-6.6a3.79,3.79,0,0,0-.35-1.84,1.17,1.17,0,0,0-1.08-.6A1.46,1.46,0,0,0,218,14a6.76,6.76,0,0,0-.44,2.84v5.32h-0.85V12.43h0.71l0.07,1.35h0.08a2,2,0,0,1,2-1.54,1.8,1.8,0,0,1,1.27.43,2.47,2.47,0,0,1,.67,1.25,2.92,2.92,0,0,1,.86-1.29,2.1,2.1,0,0,1,1.32-.39,1.73,1.73,0,0,1,1.61.84,5.42,5.42,0,0,1,.51,2.7v6.33H224.9Z"/><path class="cls-1" d="M232.05,22.12l-0.11-1.36h0a2.25,2.25,0,0,1-2.11,1.54,1.81,1.81,0,0,1-1.52-.76,3.22,3.22,0,0,1-.58-2,2.92,2.92,0,0,1,.83-2.19,3.46,3.46,0,0,1,2.33-.88l1-.05v-0.8a4.34,4.34,0,0,0-.34-2,1.18,1.18,0,0,0-1.12-.62,3.18,3.18,0,0,0-1.7.54l-0.37-.67a4,4,0,0,1,2.12-.62,2,2,0,0,1,1.72.76,4.55,4.55,0,0,1,.53,2.52v6.6h-0.7ZM230,21.57a1.57,1.57,0,0,0,1.42-.9,5.29,5.29,0,0,0,.5-2.54v-1l-1,.05a2.53,2.53,0,0,0-1.74.65,2.37,2.37,0,0,0-.57,1.71,2.55,2.55,0,0,0,.37,1.54A1.21,1.21,0,0,0,230,21.57Z"/><path class="cls-1" d="M237.79,22.3A2.38,2.38,0,0,1,235.6,21a7.46,7.46,0,0,1-.74-3.71,7.74,7.74,0,0,1,.74-3.78,2.4,2.4,0,0,1,2.2-1.3,3.07,3.07,0,0,1,1.5.33l-0.33.75a2.64,2.64,0,0,0-1.1-.28q-2.13,0-2.13,4.26t2.13,4.22a3.84,3.84,0,0,0,1.37-.29V22a2.63,2.63,0,0,1-.72.25A3.71,3.71,0,0,1,237.79,22.3Z"/><path class="cls-1" d="M240.84,9.75A1,1,0,0,1,241,9.12a0.51,0.51,0,0,1,.43-0.22,0.44,0.44,0,0,1,.38.22,1.16,1.16,0,0,1,.14.62,1.15,1.15,0,0,1-.14.61,0.44,0.44,0,0,1-.38.23,0.51,0.51,0,0,1-.43-0.23A1,1,0,0,1,240.84,9.75Zm1,12.37H241V12.43h0.85v9.68Z"/><path class="cls-1" d="M249.86,17.25a7.42,7.42,0,0,1-.77,3.75,2.44,2.44,0,0,1-2.21,1.3A2.38,2.38,0,0,1,244.7,21a7.53,7.53,0,0,1-.76-3.75q0-5,3-5a2.41,2.41,0,0,1,2.17,1.31A7.3,7.3,0,0,1,249.86,17.25Zm-5,0a7.79,7.79,0,0,0,.5,3.17,1.64,1.64,0,0,0,1.56,1.07q2.08,0,2.08-4.24t-2.08-4.2a1.64,1.64,0,0,0-1.58,1.05A7.85,7.85,0,0,0,244.83,17.25ZM246.15,11V10.86a14.44,14.44,0,0,0,1.7-2.74H249V8.27a8.93,8.93,0,0,1-1.06,1.44A12.31,12.31,0,0,1,246.57,11h-0.42Z"/><path class="cls-1" d="M256.36,22.12V15.44q0-2.41-1.43-2.41a1.69,1.69,0,0,0-1.59.9,6.1,6.1,0,0,0-.51,2.86v5.32H252V12.43h0.71l0.07,1.35h0.08a2.53,2.53,0,0,1,.87-1.13,2.09,2.09,0,0,1,1.22-.4,2,2,0,0,1,1.69.76,4.1,4.1,0,0,1,.56,2.42v6.69h-0.84Z"/><path class="cls-1" d="M267,19.69a2.71,2.71,0,0,1-.64,1.92,2.41,2.41,0,0,1-1.86.69,3.61,3.61,0,0,1-1.16-.17,2.86,2.86,0,0,1-.78-0.37v-1a2.34,2.34,0,0,0,.87.53,3.13,3.13,0,0,0,1.12.2,1.48,1.48,0,0,0,1.18-.49,1.92,1.92,0,0,0,.43-1.31,1.86,1.86,0,0,0-.31-1.08,4.33,4.33,0,0,0-1.18-1,8,8,0,0,1-1.35-1,2.8,2.8,0,0,1-.56-0.84,2.72,2.72,0,0,1-.2-1.11,2.29,2.29,0,0,1,.71-1.73,2.46,2.46,0,0,1,1.79-.68,3.31,3.31,0,0,1,2,.55l-0.44.74a2.74,2.74,0,0,0-1.55-.49,1.64,1.64,0,0,0-1.2.44,1.57,1.57,0,0,0-.45,1.17,1.83,1.83,0,0,0,.3,1.08,4.65,4.65,0,0,0,1.29,1,8.17,8.17,0,0,1,1.32,1,2.53,2.53,0,0,1,.53.84A2.93,2.93,0,0,1,267,19.69Z"/><path class="cls-1" d="M274.4,17.25a7.42,7.42,0,0,1-.77,3.75,2.44,2.44,0,0,1-2.21,1.3,2.38,2.38,0,0,1-2.17-1.3,7.53,7.53,0,0,1-.76-3.75q0-5,3-5a2.41,2.41,0,0,1,2.17,1.31A7.3,7.3,0,0,1,274.4,17.25Zm-5,0a7.79,7.79,0,0,0,.5,3.17,1.64,1.64,0,0,0,1.56,1.07q2.08,0,2.08-4.24t-2.08-4.2a1.64,1.64,0,0,0-1.58,1.05A7.85,7.85,0,0,0,269.37,17.25Z"/><path class="cls-1" d="M279.53,12.27q2.84,0,2.84,5a8,8,0,0,1-.71,3.75,2.26,2.26,0,0,1-3.3.91,2.87,2.87,0,0,1-.95-1.13h-0.07l-0.12,1.34h-0.7V8.23h0.85v4.31l0,1.17h0.07A2.34,2.34,0,0,1,279.53,12.27Zm0,0.79a1.69,1.69,0,0,0-1.62,1,7.58,7.58,0,0,0-.5,3.22v0.22q0,4.05,2.15,4.05a1.56,1.56,0,0,0,1.47-1,8.06,8.06,0,0,0,.49-3.23A8,8,0,0,0,281,14.1,1.58,1.58,0,0,0,279.5,13.05Z"/><path class="cls-1" d="M287.19,12.25a2.78,2.78,0,0,1,.85.12l-0.21.85a1.7,1.7,0,0,0-.66-0.13,1.21,1.21,0,0,0-.92.51,3.61,3.61,0,0,0-.66,1.4,7.7,7.7,0,0,0-.24,2v5.13H284.5V12.43h0.7l0.09,1.7h0.06Q286,12.25,287.19,12.25Z"/><path class="cls-1" d="M292.24,22.3A2.62,2.62,0,0,1,289.88,21a6.77,6.77,0,0,1-.83-3.64,7.81,7.81,0,0,1,.74-3.79,2.31,2.31,0,0,1,2.12-1.31,2.13,2.13,0,0,1,1.9,1.15,5.92,5.92,0,0,1,.7,3.09v0.79h-4.59a6.89,6.89,0,0,0,.6,3.17,1.89,1.89,0,0,0,1.76,1.05,3.78,3.78,0,0,0,1.92-.6v0.82A3.63,3.63,0,0,1,292.24,22.3ZM291.86,13q-1.75,0-1.92,3.49h3.72a5.6,5.6,0,0,0-.49-2.54A1.47,1.47,0,0,0,291.86,13Z"/><path class="cls-1" d="M120.41,26.48h2.5a3.3,3.3,0,0,1,2.36.79,3.07,3.07,0,0,1,.82,2.32q0,2.65-1.94,3v0.07a2.6,2.6,0,0,1,1.66,1,3.63,3.63,0,0,1,.54,2.13,4.3,4.3,0,0,1-.78,2.73,2.62,2.62,0,0,1-2.18,1h-3v-13Zm0.87,5.81h1.64a2.06,2.06,0,0,0,1.74-.68,3.29,3.29,0,0,0,.52-2,2.32,2.32,0,0,0-.58-1.7,2.28,2.28,0,0,0-1.71-.59h-1.62v5Zm0,0.8v5.63h2q2.16,0,2.16-2.93a2.9,2.9,0,0,0-.63-2,2.28,2.28,0,0,0-1.78-.7h-1.76Z"/><path class="cls-1" d="M128.25,27.16a1,1,0,0,1,.16-0.62,0.51,0.51,0,0,1,.43-0.22,0.44,0.44,0,0,1,.38.22,1.41,1.41,0,0,1,0,1.24,0.44,0.44,0,0,1-.38.23,0.51,0.51,0,0,1-.43-0.23A1,1,0,0,1,128.25,27.16Zm1,12.37h-0.85V29.84h0.85v9.68Z"/><path class="cls-1" d="M137.26,34.66a7.42,7.42,0,0,1-.77,3.75,2.44,2.44,0,0,1-2.21,1.3,2.38,2.38,0,0,1-2.17-1.3,7.53,7.53,0,0,1-.76-3.75q0-5,3-5A2.41,2.41,0,0,1,136.48,31,7.3,7.3,0,0,1,137.26,34.66Zm-5,0a7.79,7.79,0,0,0,.5,3.17,1.64,1.64,0,0,0,1.56,1.07q2.08,0,2.08-4.24t-2.08-4.2a1.64,1.64,0,0,0-1.58,1.05A7.85,7.85,0,0,0,132.23,34.66Z"/><path class="cls-1" d="M141.76,39.7q-2.82,0-2.82-5a8,8,0,0,1,.71-3.75A2.29,2.29,0,0,1,143,30a2.71,2.71,0,0,1,.93,1H144l0-1.08V25.64h0.85V39.53h-0.7L144,38.17h-0.08a2.83,2.83,0,0,1-.9,1.14A2.12,2.12,0,0,1,141.76,39.7Zm0.05-.74a1.71,1.71,0,0,0,1.56-.94,5.55,5.55,0,0,0,.55-2.77V34.7a7.32,7.32,0,0,0-.53-3.22,1.72,1.72,0,0,0-1.62-1,1.55,1.55,0,0,0-1.5,1.09,8.56,8.56,0,0,0-.46,3.16,8.23,8.23,0,0,0,.47,3.17A1.58,1.58,0,0,0,141.81,39Z"/><path class="cls-1" d="M147.24,27.16a1,1,0,0,1,.16-0.62,0.51,0.51,0,0,1,.43-0.22,0.44,0.44,0,0,1,.38.22,1.41,1.41,0,0,1,0,1.24,0.44,0.44,0,0,1-.38.23,0.51,0.51,0,0,1-.43-0.23A1,1,0,0,1,147.24,27.16Zm1,12.37h-0.85V29.84h0.85v9.68Z"/><path class="cls-1" d="M151.88,39.53l-2.28-9.68h0.86l1.45,6.23q0.25,1.08.48,2.36h0.07q0.06-.46.18-1t1.76-7.55h0.86l-2.36,9.68h-1Z"/><path class="cls-1" d="M159.38,39.7A2.62,2.62,0,0,1,157,38.39a6.77,6.77,0,0,1-.83-3.64,7.81,7.81,0,0,1,.74-3.79A2.31,2.31,0,0,1,159,29.65a2.13,2.13,0,0,1,1.9,1.15,5.92,5.92,0,0,1,.7,3.09v0.79h-4.59a6.89,6.89,0,0,0,.6,3.17,1.89,1.89,0,0,0,1.76,1.05,3.78,3.78,0,0,0,1.92-.6v0.82A3.63,3.63,0,0,1,159.38,39.7ZM159,30.42q-1.75,0-1.92,3.49h3.72a5.6,5.6,0,0,0-.49-2.54A1.47,1.47,0,0,0,159,30.42Z"/><path class="cls-1" d="M166.48,29.65a2.78,2.78,0,0,1,.85.12l-0.21.85a1.7,1.7,0,0,0-.66-0.13,1.21,1.21,0,0,0-.92.51,3.61,3.61,0,0,0-.66,1.4,7.7,7.7,0,0,0-.24,2v5.13h-0.85V29.84h0.7l0.09,1.7h0.06Q165.32,29.65,166.48,29.65Z"/><path class="cls-1" d="M172.58,37.1a2.71,2.71,0,0,1-.64,1.92,2.41,2.41,0,0,1-1.86.69,3.61,3.61,0,0,1-1.16-.17,2.86,2.86,0,0,1-.78-0.37v-1a2.34,2.34,0,0,0,.87.53,3.13,3.13,0,0,0,1.12.2,1.48,1.48,0,0,0,1.18-.49,1.92,1.92,0,0,0,.43-1.31,1.86,1.86,0,0,0-.31-1.08,4.33,4.33,0,0,0-1.18-1,8,8,0,0,1-1.35-1,2.8,2.8,0,0,1-.56-0.84,2.72,2.72,0,0,1-.2-1.11,2.29,2.29,0,0,1,.71-1.73,2.46,2.46,0,0,1,1.79-.68,3.31,3.31,0,0,1,2,.55l-0.44.74a2.74,2.74,0,0,0-1.55-.49,1.64,1.64,0,0,0-1.2.44,1.57,1.57,0,0,0-.45,1.17,1.83,1.83,0,0,0,.3,1.08,4.65,4.65,0,0,0,1.29,1,8.17,8.17,0,0,1,1.32,1,2.53,2.53,0,0,1,.53.84A2.93,2.93,0,0,1,172.58,37.1Z"/><path class="cls-1" d="M174.41,27.16a1,1,0,0,1,.16-0.62,0.51,0.51,0,0,1,.43-0.22,0.44,0.44,0,0,1,.38.22,1.41,1.41,0,0,1,0,1.24A0.44,0.44,0,0,1,175,28a0.51,0.51,0,0,1-.43-0.23A1,1,0,0,1,174.41,27.16Zm1,12.37h-0.85V29.84h0.85v9.68Z"/><path class="cls-1" d="M180.34,39.7q-2.82,0-2.82-5a8,8,0,0,1,.71-3.75,2.29,2.29,0,0,1,3.32-.92,2.71,2.71,0,0,1,.93,1h0.07l0-1.08V25.64h0.85V39.53h-0.7l-0.07-1.36h-0.08a2.83,2.83,0,0,1-.9,1.14A2.12,2.12,0,0,1,180.34,39.7Zm0.05-.74A1.71,1.71,0,0,0,182,38a5.55,5.55,0,0,0,.55-2.77V34.7a7.32,7.32,0,0,0-.53-3.22,1.72,1.72,0,0,0-1.62-1,1.55,1.55,0,0,0-1.5,1.09,8.56,8.56,0,0,0-.46,3.16,8.23,8.23,0,0,0,.47,3.17A1.58,1.58,0,0,0,180.39,39Z"/><path class="cls-1" d="M189.69,39.53l-0.11-1.36h0a2.25,2.25,0,0,1-2.11,1.54,1.81,1.81,0,0,1-1.52-.76,3.22,3.22,0,0,1-.58-2,2.92,2.92,0,0,1,.83-2.19,3.46,3.46,0,0,1,2.33-.88l1-.05V33a4.34,4.34,0,0,0-.34-2,1.18,1.18,0,0,0-1.12-.62,3.18,3.18,0,0,0-1.7.54L186,30.28a4,4,0,0,1,2.12-.62,2,2,0,0,1,1.72.76,4.55,4.55,0,0,1,.53,2.52v6.6h-0.7ZM187.63,39a1.57,1.57,0,0,0,1.42-.9,5.29,5.29,0,0,0,.5-2.54v-1l-1,.05a2.53,2.53,0,0,0-1.74.65,2.37,2.37,0,0,0-.57,1.71,2.55,2.55,0,0,0,.37,1.54A1.21,1.21,0,0,0,187.63,39Z"/><path class="cls-1" d="M195.31,39.7q-2.82,0-2.82-5a8,8,0,0,1,.71-3.75,2.29,2.29,0,0,1,3.32-.92,2.71,2.71,0,0,1,.93,1h0.07l0-1.08V25.64h0.85V39.53h-0.7l-0.07-1.36h-0.08a2.83,2.83,0,0,1-.9,1.14A2.12,2.12,0,0,1,195.31,39.7Zm0.05-.74a1.71,1.71,0,0,0,1.56-.94,5.55,5.55,0,0,0,.55-2.77V34.7a7.32,7.32,0,0,0-.53-3.22,1.72,1.72,0,0,0-1.62-1,1.55,1.55,0,0,0-1.5,1.09,8.56,8.56,0,0,0-.46,3.16,8.23,8.23,0,0,0,.47,3.17A1.58,1.58,0,0,0,195.36,39Z"/><path class="cls-1" d="M206.71,39.7q-2.82,0-2.82-5a8,8,0,0,1,.71-3.75,2.29,2.29,0,0,1,3.32-.92,2.71,2.71,0,0,1,.93,1h0.07l0-1.08V25.64h0.85V39.53H209L209,38.17h-0.08a2.83,2.83,0,0,1-.9,1.14A2.12,2.12,0,0,1,206.71,39.7Zm0.05-.74a1.71,1.71,0,0,0,1.56-.94,5.55,5.55,0,0,0,.55-2.77V34.7a7.32,7.32,0,0,0-.53-3.22,1.72,1.72,0,0,0-1.62-1,1.55,1.55,0,0,0-1.5,1.09,8.56,8.56,0,0,0-.46,3.16,8.23,8.23,0,0,0,.47,3.17A1.58,1.58,0,0,0,206.77,39Z"/><path class="cls-1" d="M215.07,39.7a2.62,2.62,0,0,1-2.36-1.31,6.77,6.77,0,0,1-.83-3.64,7.81,7.81,0,0,1,.74-3.79,2.31,2.31,0,0,1,2.12-1.31,2.13,2.13,0,0,1,1.9,1.15,5.92,5.92,0,0,1,.7,3.09v0.79h-4.59a6.89,6.89,0,0,0,.6,3.17,1.89,1.89,0,0,0,1.76,1.05,3.78,3.78,0,0,0,1.92-.6v0.82A3.63,3.63,0,0,1,215.07,39.7Zm-0.38-9.28q-1.75,0-1.92,3.49h3.72a5.6,5.6,0,0,0-.49-2.54A1.47,1.47,0,0,0,214.68,30.42Z"/><path class="cls-1" d="M226.74,27.11a2.62,2.62,0,0,0-2.34,1.56,8.89,8.89,0,0,0-.87,4.32,10.85,10.85,0,0,0,.4,3.12,4.59,4.59,0,0,0,1.15,2,2.45,2.45,0,0,0,1.74.71,3.87,3.87,0,0,0,1.75-.37v0.8a3.64,3.64,0,0,1-1.83.4,3.23,3.23,0,0,1-2.17-.8,5.12,5.12,0,0,1-1.44-2.33,11.4,11.4,0,0,1-.51-3.61,9.29,9.29,0,0,1,1.11-4.91,3.42,3.42,0,0,1,3-1.78,3.88,3.88,0,0,1,2.09.55l-0.4.77A3.08,3.08,0,0,0,226.74,27.11Z"/><path class="cls-1" d="M236,34.66a7.42,7.42,0,0,1-.77,3.75,2.44,2.44,0,0,1-2.21,1.3,2.38,2.38,0,0,1-2.17-1.3,7.53,7.53,0,0,1-.76-3.75q0-5,3-5A2.41,2.41,0,0,1,235.27,31,7.3,7.3,0,0,1,236,34.66Zm-5,0a7.79,7.79,0,0,0,.5,3.17,1.64,1.64,0,0,0,1.56,1.07q2.08,0,2.08-4.24t-2.08-4.2a1.64,1.64,0,0,0-1.58,1.05A7.85,7.85,0,0,0,231,34.66Z"/><path class="cls-1" d="M239,39.53h-0.85V25.64H239V39.53Z"/><path class="cls-1" d="M247.07,34.66a7.42,7.42,0,0,1-.77,3.75,2.44,2.44,0,0,1-2.21,1.3,2.38,2.38,0,0,1-2.17-1.3,7.53,7.53,0,0,1-.76-3.75q0-5,3-5A2.41,2.41,0,0,1,246.29,31,7.3,7.3,0,0,1,247.07,34.66Zm-5,0a7.79,7.79,0,0,0,.5,3.17,1.64,1.64,0,0,0,1.56,1.07q2.08,0,2.08-4.24t-2.08-4.2a1.64,1.64,0,0,0-1.58,1.05A7.85,7.85,0,0,0,242,34.66Z"/><path class="cls-1" d="M257.43,39.53v-6.6q0-2.44-1.43-2.44a1.47,1.47,0,0,0-1.41.85,5.69,5.69,0,0,0-.43,2.51v5.67h-0.84v-6.6a3.79,3.79,0,0,0-.35-1.84,1.17,1.17,0,0,0-1.08-.6,1.46,1.46,0,0,0-1.4.87,6.76,6.76,0,0,0-.44,2.84v5.32H249.2V29.84h0.71L250,31.19h0.08a2,2,0,0,1,2-1.54,1.8,1.8,0,0,1,1.27.43,2.47,2.47,0,0,1,.67,1.25,2.92,2.92,0,0,1,.86-1.29,2.1,2.1,0,0,1,1.32-.39,1.73,1.73,0,0,1,1.61.84,5.42,5.42,0,0,1,.51,2.7v6.33h-0.84Z"/><path class="cls-1" d="M263.83,29.67q2.84,0,2.84,5a8,8,0,0,1-.71,3.75,2.26,2.26,0,0,1-3.3.91,2.87,2.87,0,0,1-.95-1.13h-0.07l-0.12,1.34h-0.7V25.64h0.85v4.31l0,1.17h0.07A2.34,2.34,0,0,1,263.83,29.67Zm0,0.79a1.69,1.69,0,0,0-1.62,1,7.58,7.58,0,0,0-.5,3.22v0.22q0,4.05,2.15,4.05a1.56,1.56,0,0,0,1.47-1,8.06,8.06,0,0,0,.49-3.23,8,8,0,0,0-.47-3.15A1.58,1.58,0,0,0,263.8,30.46Z"/><path class="cls-1" d="M268.68,27.16a1,1,0,0,1,.16-0.62,0.51,0.51,0,0,1,.43-0.22,0.44,0.44,0,0,1,.38.22,1.41,1.41,0,0,1,0,1.24,0.44,0.44,0,0,1-.38.23,0.51,0.51,0,0,1-.43-0.23A1,1,0,0,1,268.68,27.16Zm1,12.37H268.8V29.84h0.85v9.68Z"/><path class="cls-1" d="M276,39.53l-0.11-1.36h0a2.25,2.25,0,0,1-2.11,1.54,1.81,1.81,0,0,1-1.52-.76,3.22,3.22,0,0,1-.58-2,2.92,2.92,0,0,1,.83-2.19,3.46,3.46,0,0,1,2.33-.88l1-.05V33a4.34,4.34,0,0,0-.34-2,1.18,1.18,0,0,0-1.12-.62,3.18,3.18,0,0,0-1.7.54l-0.37-.67a4,4,0,0,1,2.12-.62,2,2,0,0,1,1.72.76,4.55,4.55,0,0,1,.53,2.52v6.6H276ZM273.93,39a1.57,1.57,0,0,0,1.42-.9,5.29,5.29,0,0,0,.5-2.54v-1l-1,.05a2.53,2.53,0,0,0-1.74.65,2.37,2.37,0,0,0-.57,1.71,2.55,2.55,0,0,0,.37,1.54A1.21,1.21,0,0,0,273.93,39Z"/></svg>